<?xml version="1.0" encoding="utf-8"?>
<!-- Generator: Adobe Illustrator 27.5.0, SVG Export Plug-In . SVG Version: 6.00 Build 0)  -->
<svg version="1.1" xmlns="http://www.w3.org/2000/svg" xmlns:xlink="http://www.w3.org/1999/xlink" x="0px" y="0px"
	 viewBox="0 0 500 500" style="enable-background:new 0 0 500 500;" xml:space="preserve">
<g id="Background_Simple">
	<path style="fill:#FFE6DE;" d="M440.543,234.691c3.052,96.089-83.097,170.409-189.48,177.787
		c-106.384,7.377-208.078-48.664-214.728-144.567S113.252,96.851,217.83,76.291C332.717,53.703,436.241,99.217,440.543,234.691z"/>
	<g>
		<g>
			<g>
				<path style="fill:#FFFFFF;" d="M434.975,206.835c-2.772-0.433-11.481,0.345-11.481,0.345l-1.96-2.485
					c0,0,5.857-9.88,4.424-11.777c-1.433-1.896-11.724-7.916-13.442-7.172c-1.718,0.744-6.872,8.008-6.872,8.008l-3.608-0.479
					c0,0-1.405-10.002-5.469-9.807c-4.064,0.195-12.038,2.83-13.632,3.86c-1.594,1.03,0.801,10.807,0.801,10.807l-2.631,2.105
					l-1.132-0.542c0,0-7.816-4.885-10.049-3.21c-2.233,1.675-7.537,12.561-7.118,13.957c0.419,1.396,8.572,7.258,8.572,7.258
					l-0.616,2.791c0,0-9.212,2.791-9.63,5.443c-0.419,2.652,1.256,13.538,4.047,13.817c2.792,0.279,11.445-0.977,11.445-0.977
					l2.093,2.373c0,0-5.304,10.189-3.768,12.003c1.535,1.815,12.142,7.258,13.817,6.42c1.675-0.837,6.42-8.374,6.42-8.374
					l3.629,0.279c0,0,1.954,9.909,6.001,9.49c4.047-0.418,11.863-3.489,13.399-4.605c1.535-1.116-1.396-10.747-1.396-10.747
					l2.652-2.373c0,0,7.816,4.745,10.747,2.791c2.931-1.954,7.676-11.165,6.979-12.561c-0.698-1.396-7.816-7.258-7.816-7.258
					l0.037-0.745c2.474-0.69,8.392-2.546,8.838-4.618C438.819,218.23,437.747,207.268,434.975,206.835z M399.734,234.565
					c-6.965,0-12.611-5.646-12.611-12.611c0-6.965,5.646-12.611,12.611-12.611c6.964,0,12.611,5.646,12.611,12.611
					C412.345,228.919,406.699,234.565,399.734,234.565z"/>
			</g>
		</g>
	</g>
	<g>
		<g>
			<g>
				<path style="fill:#FFFFFF;" d="M137.504,318.065c-2.275-0.355-9.426,0.283-9.426,0.283l-1.609-2.04c0,0,4.808-8.111,3.632-9.668
					c-1.176-1.557-9.625-6.498-11.036-5.888c-1.411,0.611-5.642,6.574-5.642,6.574l-2.962-0.393c0,0-1.153-8.211-4.49-8.051
					c-3.337,0.16-9.882,2.323-11.191,3.169c-1.309,0.846,0.658,8.872,0.658,8.872l-2.16,1.728l-0.929-0.445
					c0,0-6.417-4.01-8.25-2.635c-1.833,1.375-6.187,10.312-5.843,11.458c0.344,1.146,7.037,5.958,7.037,5.958l-0.506,2.292
					c0,0-7.563,2.291-7.906,4.469c-0.344,2.177,1.031,11.114,3.323,11.343c2.292,0.229,9.396-0.802,9.396-0.802l1.719,1.948
					c0,0-4.354,8.364-3.094,9.854c1.26,1.49,9.968,5.958,11.343,5.271c1.375-0.687,5.271-6.875,5.271-6.875l2.979,0.229
					c0,0,1.604,8.135,4.927,7.791c3.323-0.344,9.74-2.864,11-3.781c1.26-0.917-1.146-8.823-1.146-8.823l2.177-1.948
					c0,0,6.416,3.896,8.823,2.292c2.406-1.604,6.302-9.166,5.729-10.312c-0.573-1.146-6.417-5.958-6.417-5.958l0.031-0.611
					c2.031-0.567,6.89-2.09,7.255-3.791C140.66,327.42,139.779,318.421,137.504,318.065z M108.572,340.83
					c-5.718,0-10.353-4.635-10.353-10.353c0-5.718,4.635-10.353,10.353-10.353c5.718,0,10.353,4.635,10.353,10.353
					C118.925,336.195,114.29,340.83,108.572,340.83z"/>
			</g>
		</g>
	</g>
	<g>
		<g>
			<g>
				<path style="fill:#FFFFFF;" d="M311.459,110.863c-2.235-0.349-9.26,0.278-9.26,0.278l-1.58-2.004c0,0,4.724-7.969,3.568-9.498
					c-1.156-1.529-9.456-6.384-10.842-5.784c-1.386,0.6-5.542,6.458-5.542,6.458l-2.91-0.386c0,0-1.133-8.067-4.411-7.91
					c-3.278,0.158-9.709,2.283-10.995,3.114c-1.286,0.831,0.646,8.716,0.646,8.716l-2.122,1.698l-0.913-0.437
					c0,0-6.304-3.94-8.105-2.589c-1.801,1.351-6.079,10.131-5.741,11.256c0.338,1.126,6.913,5.854,6.913,5.854l-0.497,2.251
					c0,0-7.43,2.251-7.767,4.39c-0.338,2.139,1.013,10.919,3.264,11.144c2.251,0.225,9.231-0.788,9.231-0.788l1.688,1.913
					c0,0-4.277,8.217-3.039,9.681c1.238,1.464,9.793,5.854,11.144,5.178c1.351-0.675,5.178-6.754,5.178-6.754l2.927,0.225
					c0,0,1.576,7.992,4.84,7.654c3.264-0.337,9.568-2.814,10.806-3.714c1.238-0.9-1.126-8.668-1.126-8.668l2.139-1.914
					c0,0,6.304,3.827,8.667,2.251c2.364-1.576,6.191-9.005,5.629-10.131c-0.563-1.126-6.304-5.853-6.304-5.853l0.03-0.601
					c1.995-0.557,6.768-2.053,7.128-3.724C314.559,120.053,313.694,111.211,311.459,110.863z M283.036,133.227
					c-5.617,0-10.171-4.554-10.171-10.171c0-5.617,4.553-10.171,10.171-10.171c5.617,0,10.171,4.554,10.171,10.171
					C293.207,128.673,288.653,133.227,283.036,133.227z"/>
			</g>
		</g>
	</g>
	<g>
		<g>
			<g>
				<path style="fill:#FFFFFF;" d="M290.335,304.119c-1.333-0.208-5.523,0.166-5.523,0.166l-0.943-1.195
					c0,0,2.817-4.753,2.128-5.665c-0.689-0.912-5.639-3.807-6.466-3.45c-0.827,0.358-3.306,3.852-3.306,3.852l-1.735-0.23
					c0,0-0.676-4.811-2.631-4.717c-1.955,0.094-5.79,1.361-6.557,1.857s0.385,5.198,0.385,5.198l-1.266,1.013l-0.545-0.261
					c0,0-3.76-2.35-4.834-1.544c-1.074,0.806-3.625,6.042-3.424,6.713c0.201,0.671,4.123,3.491,4.123,3.491l-0.296,1.343
					c0,0-4.431,1.343-4.632,2.618c-0.201,1.276,0.604,6.512,1.947,6.646c1.343,0.134,5.505-0.47,5.505-0.47l1.007,1.141
					c0,0-2.551,4.901-1.813,5.774c0.738,0.873,5.841,3.491,6.646,3.088c0.806-0.403,3.088-4.028,3.088-4.028l1.746,0.134
					c0,0,0.94,4.766,2.887,4.565c1.947-0.201,5.706-1.678,6.445-2.215c0.738-0.537-0.671-5.169-0.671-5.169l1.276-1.141
					c0,0,3.759,2.283,5.169,1.343c1.41-0.94,3.692-5.371,3.357-6.042c-0.336-0.671-3.76-3.491-3.76-3.491l0.018-0.358
					c1.19-0.332,4.037-1.225,4.251-2.221C292.184,309.6,291.669,304.327,290.335,304.119z M273.384,317.458
					c-3.35,0-6.066-2.716-6.066-6.066s2.716-6.066,6.066-6.066c3.35,0,6.066,2.716,6.066,6.066S276.734,317.458,273.384,317.458z"/>
			</g>
		</g>
	</g>
	<g>
		<g>
			<g>
				<path style="fill:#FFFFFF;" d="M90.848,202.397c-1.333-0.208-5.523,0.166-5.523,0.166l-0.942-1.195c0,0,2.817-4.752,2.128-5.665
					c-0.689-0.912-5.639-3.808-6.466-3.45c-0.827,0.358-3.305,3.852-3.305,3.852l-1.735-0.23c0,0-0.676-4.811-2.631-4.717
					c-1.955,0.094-5.79,1.361-6.557,1.857c-0.767,0.496,0.385,5.199,0.385,5.199l-1.266,1.013l-0.545-0.261
					c0,0-3.76-2.35-4.834-1.544c-1.074,0.806-3.625,6.042-3.424,6.713c0.201,0.671,4.123,3.491,4.123,3.491l-0.296,1.343
					c0,0-4.431,1.343-4.632,2.618c-0.201,1.275,0.604,6.512,1.947,6.646c1.343,0.134,5.505-0.47,5.505-0.47l1.007,1.141
					c0,0-2.551,4.901-1.813,5.773c0.738,0.873,5.84,3.491,6.646,3.088c0.806-0.403,3.088-4.028,3.088-4.028l1.745,0.134
					c0,0,0.94,4.766,2.887,4.565c1.947-0.201,5.706-1.678,6.445-2.215c0.738-0.537-0.671-5.169-0.671-5.169l1.275-1.141
					c0,0,3.76,2.283,5.169,1.343c1.41-0.94,3.692-5.371,3.357-6.042c-0.336-0.671-3.76-3.491-3.76-3.491l0.018-0.358
					c1.19-0.332,4.037-1.225,4.251-2.221C92.697,207.878,92.181,202.605,90.848,202.397z M73.896,215.735
					c-3.35,0-6.066-2.716-6.066-6.066c0-3.35,2.716-6.066,6.066-6.066c3.35,0,6.066,2.716,6.066,6.066
					C79.962,213.019,77.246,215.735,73.896,215.735z"/>
			</g>
		</g>
	</g>
	<g>
		<path style="fill:#FFFFFF;" d="M119.086,270.99c0,0,14.473-21.511-5.444-30.699c0,0,12.914,3.676,18.9-5.09
			c5.986-8.766,6.95-18.627,6.95-18.627s4.874,16.009,15.512,17.204c14.62,1.642,20.394-3.989,20.394-3.989
			s-4.544,11.573-1.478,20.32c3.066,8.747,12.3,9.952,12.3,9.952s-16.792-1.039-22.865,8.624
			c-6.074,9.663-5.603,20.267-5.603,20.267s-3.917-15.467-20.205-18.568C121.259,267.28,119.086,270.99,119.086,270.99z"/>
	</g>
	<g>
		<path style="fill:#FFFFFF;" d="M231.518,385.559c0,0,11.785-17.516-4.433-24.998c0,0,10.515,2.994,15.389-4.144
			c4.874-7.138,5.66-15.167,5.66-15.167s3.969,13.036,12.631,14.009c11.904,1.337,16.606-3.248,16.606-3.248
			s-3.7,9.423-1.203,16.546c2.497,7.122,10.015,8.103,10.015,8.103s-13.673-0.846-18.619,7.022
			c-4.945,7.868-4.562,16.503-4.562,16.503s-3.19-12.594-16.453-15.119C233.287,382.539,231.518,385.559,231.518,385.559z"/>
	</g>
	<g>
		<path style="fill:#FFFFFF;" d="M168.967,134.423c0,0,11.785-17.516-4.433-24.998c0,0,10.515,2.994,15.389-4.144
			c4.874-7.138,5.66-15.167,5.66-15.167s3.969,13.036,12.631,14.009c11.904,1.337,16.606-3.248,16.606-3.248
			s-3.7,9.424-1.203,16.546c2.497,7.122,10.016,8.103,10.016,8.103s-13.673-0.846-18.619,7.022
			c-4.945,7.868-4.562,16.503-4.562,16.503s-3.19-12.594-16.453-15.12C170.736,131.403,168.967,134.423,168.967,134.423z"/>
	</g>
</g>
<g id="Lines">
	<g>
		<path style="fill:#421B36;" d="M150.27,285.888c-4.715,2.204-9.678,3.862-14.546,5.688c-3.917,1.47-8.362,2.825-11.777,5.324
			c-1.889,1.383-2.61,3.547,0.007,4.526c3.692,1.38,8.286,1.173,12.15,1.193c5.904,0.029,11.861-0.258,17.7-1.164
			c-0.302-0.518-0.603-1.036-0.905-1.554c-4.965,6.02-8.673,12.891-10.949,20.357c-0.252,0.827,0.674,1.389,1.366,1.05
			c6.59-3.232,13.209-6.407,19.829-9.578c1.079-0.517,0.137-2.12-0.939-1.605c-6.62,3.171-13.239,6.346-19.829,9.578
			c0.455,0.35,0.911,0.7,1.366,1.05c2.179-7.146,5.716-13.771,10.471-19.536c0.614-0.744,0.028-1.698-0.904-1.554
			c-4.542,0.705-9.163,0.969-13.755,1.068c-4.251,0.092-8.642,0.152-12.851-0.549c-0.477-0.079-2.549-0.28-2.757-0.808
			c-0.055-0.14,1.573-1.303,1.966-1.539c3.541-2.12,7.593-3.458,11.444-4.891c4.645-1.729,9.356-3.349,13.851-5.45
			C152.292,286.987,151.349,285.384,150.27,285.888L150.27,285.888z"/>
	</g>
	<g>
		<path style="fill:#421B36;" d="M352.84,229.467c2.28-0.864,4.56-1.729,6.84-2.593c1.421-0.539,2.842-1.077,4.263-1.616
			c0.701-0.266,1.599-0.486,2.211-0.938c1.256-0.928,1.292-2.861,0.076-3.837c-0.668-0.536-1.701-0.76-2.49-1.046
			c-2.53-0.918-5.06-1.835-7.59-2.753c0.137,0.518,0.273,1.036,0.41,1.554c3.602-3.887,7.083-7.895,10.449-11.987
			c2.46-2.992,4.876-6.038,7.063-9.237c1.334-1.951,3.45-4.612,3.674-7.07c0.37-4.044-6.785-1.664-8.55-1.128
			c-6.219,1.887-12.228,4.538-18.151,7.188c-4.082,1.826-8.142,3.71-12.153,5.69c0.455,0.185,0.91,0.37,1.366,0.556
			c-0.931-3.977-1.989-7.923-3.195-11.826c-0.554-1.792-1.021-3.701-1.787-5.415c-0.4-0.895-1.08-1.716-2.16-1.645
			c-2.493,0.163-3.445,4.692-4.004,6.493c-1.134,3.654-1.671,7.464-1.699,11.285c-0.009,1.197,1.851,1.198,1.859,0
			c0.02-2.781,0.309-5.535,0.942-8.247c0.3-1.283,0.668-2.552,1.102-3.796c0.349-0.999,1.154-4.443,2.44-2.842
			c0.677,0.844,0.981,2.956,1.306,3.993c0.419,1.336,0.821,2.677,1.207,4.023c0.804,2.805,1.53,5.63,2.196,8.471
			c0.145,0.62,0.852,0.809,1.366,0.556c8.431-4.162,17.041-8.148,25.885-11.354c2.322-0.842,4.685-1.659,7.107-2.161
			c0.765-0.158,1.586-0.328,2.373-0.275c0.24,0.016,0.433,0.047,0.665,0.107c0.115,0.03,0.072,0.073,0.043-0.019
			c0.377,1.167-2.164,4.571-2.93,5.726c-2.029,3.057-4.298,5.954-6.613,8.798c-3.566,4.38-7.275,8.658-11.114,12.801
			c-0.5,0.539-0.252,1.314,0.41,1.554c2.012,0.73,4.024,1.46,6.036,2.19c0.911,0.33,2.122,0.558,2.948,1.07
			c0.98,0.607,0.428,1.011-0.293,1.388c-2.122,1.108-4.643,1.76-6.88,2.608c-1.707,0.647-3.415,1.295-5.122,1.942
			C351.238,228.094,351.718,229.893,352.84,229.467L352.84,229.467z"/>
	</g>
	<g>
		<path style="fill:#421B36;" d="M218.55,148.43c-2.022-1.827-3.794-3.883-5.215-6.214c-1.098-1.801-4.084-6.449-1.474-8.003
			c2.069-1.232,4.622,0.581,6.24,1.779c1.808,1.339,3.527,2.526,5.839,2.64c0.639,0.031,1.012-0.617,0.896-1.177
			c-0.949-4.623-1.018-9.438-0.825-14.138c0.194-4.706,0.647-9.519,1.948-14.063c0.358-1.251,1.46-5.671,3.52-4.317
			c1.186,0.779,1.932,2.712,2.508,3.933c1.011,2.146,1.81,4.391,2.536,6.647c1.742,5.416,3.154,11.077,3.634,16.758
			c0.068,0.811,0.962,1.216,1.587,0.657c1.84-1.646,3.754-3.217,5.757-4.662c1.28-0.924,3.323-2.742,4.974-2.83
			c0.215,0.021,0.217-0.026,0.005-0.14c0.083,0.14,0.194,0.251,0.333,0.333c0.305,0.151,0.299,0.12-0.018-0.09
			c0.043,0.146,0.069,0.295,0.078,0.447c-0.138,0.775-0.004,1.672-0.093,2.469c-0.264,2.361-0.797,4.874-1.906,6.992
			c-0.555,1.059,1.049,2,1.605,0.938c1.357-2.591,1.983-5.635,2.218-8.533c0.075-0.927,0.197-2.087-0.168-2.975
			c-0.154-0.375-0.343-0.543-0.626-0.811c-0.397-0.376-0.114,0.025,0.099,0.17c-0.19-0.129-0.216-0.316-0.441-0.426
			c-1.771-0.868-4.096,0.884-5.493,1.806c-2.698,1.781-5.233,3.845-7.64,5.998c0.529,0.219,1.058,0.438,1.587,0.657
			c-0.481-5.696-1.838-11.356-3.555-16.797c-0.791-2.506-1.68-4.993-2.789-7.377c-0.725-1.558-1.561-3.321-2.878-4.479
			c-2.257-1.986-4.516-0.049-5.542,2.144c-1.969,4.206-2.475,9.204-2.862,13.774c-0.516,6.084-0.578,12.403,0.655,18.409
			c0.299-0.392,0.598-0.785,0.896-1.177c-3.234-0.159-5.25-3.276-8.168-4.312c-2.056-0.729-4.796-0.72-6.117,1.303
			c-1.638,2.512,0.088,5.792,1.33,8.092c1.608,2.976,3.744,5.623,6.25,7.888C218.121,150.546,219.44,149.234,218.55,148.43
			L218.55,148.43z"/>
	</g>
</g>
<g id="Character_hand_4">
	<g>
		<path style="fill:#FFFFFF;" d="M306.384,340.396c0,0,18.412,57.707,27.587,70.329c7.243,9.964,91.444-22.558,95.076-29.601
			c1.825-3.54-23.805-73.383-27.636-73.738C390.351,306.358,319.568,332.741,306.384,340.396z"/>
		<g>
			<path style="fill:#421B36;" d="M305.488,340.643c3.173,9.942,6.554,19.824,10.072,29.649c2.814,7.856,5.725,15.684,8.927,23.392
				c2.35,5.657,4.708,11.555,8.109,16.683c1.967,2.966,5.255,3.244,8.596,3.16c5.577-0.141,11.158-1.379,16.557-2.69
				c14.576-3.54,28.845-8.563,42.764-14.119c6.094-2.433,12.151-4.993,18.05-7.871c3.47-1.693,7.426-3.416,10.297-6.072
				c1.974-1.826,1-4.376,0.426-6.691c-1.358-5.478-3.167-10.855-4.973-16.199c-4.619-13.668-9.637-27.256-15.349-40.508
				c-1.657-3.843-3.234-8.094-5.712-11.508c-0.738-1.016-1.346-1.443-2.629-1.44c-1.862,0.004-3.747,0.378-5.564,0.745
				c-6.24,1.26-12.366,3.146-18.431,5.055c-7.929,2.495-15.79,5.206-23.609,8.024c-14.072,5.071-28.206,10.303-41.769,16.637
				c-1.806,0.843-3.609,1.708-5.336,2.705c-1.036,0.598-0.101,2.205,0.939,1.605c4.172-2.407,8.69-4.268,13.116-6.146
				c6.948-2.948,13.978-5.707,21.035-8.383c14.807-5.615,29.774-11.015,45.02-15.322c4.504-1.272,9.258-2.782,13.963-3.039
				c0.32-0.018,0.638-0.017,0.959-0.02c0.053,0,0.407,0.029,0.306,0.008c0.005,0.001-0.229-0.115-0.055-0.006
				c0.012,0.008,0.434,0.494,0.616,0.752c0.963,1.367,1.698,2.92,2.43,4.417c5.764,11.791,10.257,24.292,14.686,36.63
				c2.252,6.273,4.433,12.576,6.407,18.943c1.103,3.559,2.595,7.474,2.862,11.18c0.013,0.186,0.015,0.372,0.002,0.558
				c0.006-0.078,0.09-0.137-0.062,0.062c-0.094,0.123-0.59,0.632-0.902,0.892c-1.216,1.014-2.632,1.816-4.005,2.594
				c-4.712,2.672-9.683,4.905-14.651,7.053c-13.476,5.826-27.356,10.878-41.445,15.006c-6.181,1.811-12.443,3.469-18.802,4.527
				c-3.711,0.618-8.459,1.564-12.131,0.234c-1.421-0.514-1.933-1.55-2.718-2.847c-1.434-2.369-2.655-4.868-3.823-7.377
				c-3.229-6.934-6.005-14.081-8.691-21.239c-4.63-12.339-8.915-24.812-12.986-37.346c-0.236-0.727-0.472-1.453-0.704-2.181
				C306.918,339.013,305.122,339.498,305.488,340.643z"/>
		</g>
		<path style="fill:#421B36;" d="M308.582,348.169c28.442-14.2,97.266-35.584,97.406-34.336c0,0-1.136-4.855-3.14-7.821
			c-2.44-3.611-84.839,26.438-96.463,34.384L308.582,348.169z"/>
		<path style="fill:#A0D2F4;" d="M314.943,339.977c0.559,1.391-0.116,2.971-1.507,3.53c-1.391,0.558-2.971-0.116-3.53-1.507
			s0.116-2.971,1.507-3.53S314.384,338.586,314.943,339.977z"/>
		<path style="fill:#A0D2F4;" d="M322.629,336.891c0.559,1.391-0.116,2.971-1.507,3.53c-1.391,0.559-2.971-0.116-3.53-1.507
			c-0.559-1.391,0.116-2.971,1.507-3.53S322.071,335.5,322.629,336.891z"/>
		<path style="fill:#8380FF;" d="M345.215,250.034c-9.21-16.774-30.572-46.337-32.828-46.035c-0.964,0.129-6.887,3.812-14.498,8.872
			c-3.458-2.737-9.058-5.691-15.286-3.137c-3.187,1.307-5.699,3.873-7.187,6.98c-1.448,3.024-2.623,7.452-0.992,12.45
			c-9.666,7.021-17.215,13.015-16.592,13.958c0.504,0.764,4.125,6.309,9.005,13.601c-2.686,2.886-8.054,9.998-4.504,17.777
			c1.43,3.133,4.092,5.545,7.254,6.91c3.413,1.474,8.535,2.551,14.102-0.189c0.28,0.392,0.56,0.783,0.837,1.167
			c6.181,8.585,9.9,15.307,11.583,15.763c18.102-10.829,31.453-21.126,46.62-31.833C348.172,262.476,348.974,256.88,345.215,250.034
			z"/>
		<path style="opacity:0.2;fill:#421B36;" d="M316.269,271.972c-0.577-0.783-1.15-1.582-1.701-2.399
			c0.229-0.282,0.537-0.572,1.013-0.868c0.869,0.52,1.537-0.608,2.332-0.237C318.715,270.998,317.519,271.944,316.269,271.972z
			 M312.98,255.516c-2.018-0.138-3.944,1.809-1.965,3.276C313.551,259.675,315.021,257.448,312.98,255.516z M335.444,269.221
			c-1.166-1.014-3.688-1.576-3.827,0.632C331.797,272.525,335.853,271.877,335.444,269.221z M312.494,249.97
			c-0.042,0.061-0.094,0.148-0.139,0.218c0.448-0.047,0.849-0.227,1.121-0.543l-0.441-0.375
			C313.034,249.27,312.813,249.505,312.494,249.97z M317.992,260.847c-0.922-2.524-6.742-0.156-1.707,2.968
			c0.388-0.474,0.891-0.834,0.838-1.072C316.771,261.727,317.973,261.679,317.992,260.847z M324.577,276.867
			c-0.93,0.392-1.259,1.133-1.565,2.074c0.188,0.437,0.414,0.744,0.65,0.994l2.661-2.055
			C325.848,277.304,325.249,276.998,324.577,276.867z M329.352,272.562c-0.648,0.848-1.777,0.84-2.29,1.673
			c0.267,1.221,1.074,1.642,1.904,1.605l2.197-1.696C331.195,273.553,330.729,272.944,329.352,272.562z M311.362,263.959
			c0.429,0.961,0.948,1.953,1.539,2.962c0.168-0.741,0.333-1.468,0.504-2.215C312.737,264.093,312.076,263.966,311.362,263.959z
			 M321.632,275.604c0.371-0.561,0.691-1.046,1.116-1.688c-0.96-0.774-1.921-1.052-2.984-1.104
			c-0.436,0.539-0.834,1.033-1.262,1.566c0.397,0.431,0.824,0.924,1.19,1.357C320.415,275.685,321.041,275.643,321.632,275.604z
			 M323.604,271.487c1.913,0.172,3.554,0.023,2.915-2.272C324.474,268.071,322.241,268.958,323.604,271.487z M314.558,252.139
			c0.678,0.986,0.371,2.259,1.79,2.546c0.82-0.425,1.305-0.854,1.482-1.339l-2.304-1.958
			C315.106,251.595,314.729,251.878,314.558,252.139z M326.627,261.208c-0.11,0.075-0.221,0.151-0.33,0.227
			c-0.365-0.529-0.731-1.057-1.104-1.599C320.518,260.56,325.979,266.031,326.627,261.208z M320.331,267.83
			c1.682-0.676,1.968-1.858,1.097-3.349C318.719,263.606,318.375,266.551,320.331,267.83z M327.147,265.603
			c0.418,0.677,0.694,1.476,1.666,1.961c0.609-0.331,1.169-0.636,1.724-0.939c-0.064-0.783-0.121-1.464-0.183-2.217
			C329.173,264.61,327.895,264.252,327.147,265.603z M322.304,257.31c-0.055-0.104-0.103-0.194-0.156-0.294l-1.692-1.438
			C318.173,256.073,319.125,260.178,322.304,257.31z"/>
		<g>
			<path style="fill:#8380FF;" d="M391.087,328.102c-0.498,0.039-36.957,35.363-36.037,40.943
				c0.365,2.213,4.664,7.215,10.068,12.574c3.227,3.2-1.495,7.069,0.196,11.242c2.448,6.043,7.551,10.474,9.604,11.223
				c0,0,42.171-13.716,54.13-22.96l-10.381-32.25C407.072,337.994,395.061,327.792,391.087,328.102z"/>
			<path style="fill:#FFBFBF;" d="M389.668,248.669c-4.908-1.156-8.119,1.122-8.626,3.36c-0.381,1.681,0.631,13.796,0.631,13.796
				s-9.833-19.835-20.069-24.177c-5.362-2.274-11.546,1.459-11.546,1.459s-6.657-4.75-12.124-4.75c-6.234,0-9.408,4.602-7.992,8.512
				c0,0-13.512-5.763-16.908,2.401c-3.397,8.164,8.17,13.616,11.549,15.409c3.251,1.725,14.69,8.33,16.625,14.434
				c1.935,6.105-4.453,18.137-8.947,19.014c-4.494,0.877-5.206-4.417-5.206-4.417s-1.352-9.525-3.89-13.389l-15.63,10.686
				c0.666,1.849,2.609,6.435,2.732,11.886c0.123,5.451-1.116,22.512,8.659,30.73c19.236,16.173,42.031,33.79,44.435,32.186
				c8.668-5.784,23.833-20.327,27.818-30.236l-21.038-14.752c0,0,26.497-37.471,27.622-45.586
				C398.888,267.121,394.576,249.824,389.668,248.669z"/>
			<g>
				<path style="fill:#421B36;" d="M329.096,247.785c7.699,3.421,15.493,7.379,21.156,13.79c5.419,6.135,8.427,14.847,5.772,22.846
					c-0.378,1.138,1.417,1.626,1.793,0.494c2.673-8.054-0.004-16.818-5.125-23.305c-5.77-7.309-14.315-11.724-22.658-15.431
					C328.95,245.697,328.003,247.299,329.096,247.785L329.096,247.785z"/>
			</g>
			<g>
				<path style="fill:#421B36;" d="M347.95,243.149c7.208,3.773,13.345,10.476,17.261,17.545c1.836,3.314,3.622,6.872,4.688,10.514
					c1.314,4.487,0.902,8.882-0.772,13.212c-0.432,1.117,1.366,1.601,1.793,0.494c1.646-4.259,2.144-8.699,1.052-13.16
					c-0.986-4.029-2.962-7.892-4.903-11.534c-4.014-7.533-10.576-14.696-18.182-18.678
					C347.829,240.99,346.888,242.594,347.95,243.149L347.95,243.149z"/>
			</g>
			<g>
				<path style="fill:#421B36;" d="M379.112,259.813c2.083,4.446,3.314,9.229,3.385,14.149c0.04,2.741-0.471,5.43-0.513,8.159
					c-0.018,1.197,1.841,1.197,1.859,0c0.045-2.921,0.591-5.788,0.5-8.725c-0.156-5.064-1.483-9.945-3.626-14.52
					C380.211,257.792,378.607,258.735,379.112,259.813L379.112,259.813z"/>
			</g>
			<g>
				<path style="fill:#421B36;" d="M315.181,245.958c-0.435,1.711,0.119,3.497,1.325,4.764c1.205,1.266,2.946,1.94,4.665,2.078
					c1.699,0.136,3.475-0.37,4.732-1.546c1.244-1.163,1.807-2.802,1.577-4.475c-0.068-0.498-0.706-0.77-1.144-0.649
					c-0.537,0.147-0.718,0.644-0.649,1.144c0.14,1.023-0.418,2.054-1.156,2.719c-0.903,0.813-2.184,1.042-3.36,0.948
					c-2.206-0.177-4.836-1.979-4.197-4.489C317.269,245.292,315.476,244.798,315.181,245.958L315.181,245.958z"/>
			</g>
			<g>
				<path style="fill:#421B36;" d="M334.88,238.665c-1.832,3.389,2.06,6.841,4.965,7.822c3.354,1.133,7.189-0.011,9.449-2.716
					c0.762-0.912-0.546-2.234-1.315-1.315c-1.713,2.051-4.448,3.083-7.073,2.407c-1.218-0.314-2.34-0.944-3.232-1.832
					c-0.821-0.818-1.832-2.238-1.189-3.427C337.055,238.551,335.45,237.611,334.88,238.665L334.88,238.665z"/>
			</g>
			<g>
				<path style="fill:#421B36;" d="M357.975,241.45c-0.856,1.253-0.782,2.903-0.121,4.222c0.659,1.317,1.936,2.293,3.226,2.943
					c1.432,0.721,3.071,1.125,4.663,0.755c1.343-0.313,2.612-1.212,3.179-2.491c0.203-0.459,0.134-0.999-0.333-1.272
					c-0.396-0.231-1.068-0.128-1.272,0.333c-0.935,2.11-3.538,1.954-5.298,1.07c-1.585-0.797-3.759-2.686-2.438-4.62
					C360.257,241.398,358.647,240.467,357.975,241.45L357.975,241.45z"/>
			</g>
			<g>
				<path style="fill:#421B36;" d="M389.161,249.124c-0.727,0.773-1.449,1.617-1.768,2.649c-0.344,1.114-0.041,2.238,0.678,3.126
					c1.376,1.697,3.874,2.221,5.929,1.792c0.477-0.1,0.797-0.687,0.649-1.144c-0.163-0.504-0.633-0.756-1.144-0.649
					c-0.691,0.144-1.494,0.111-2.217-0.1c-0.73-0.213-1.268-0.553-1.787-1.076c-0.178-0.179,0.063,0.114-0.078-0.094
					c-0.05-0.074-0.099-0.148-0.143-0.226c-0.018-0.031-0.119-0.244-0.058-0.097c-0.033-0.081-0.06-0.167-0.082-0.252
					c-0.015-0.057-0.028-0.115-0.038-0.174c0.01,0.079,0.012,0.084,0.006,0.015c-0.005-0.094-0.005-0.188-0.001-0.282
					c0.006-0.068,0.003-0.062-0.008,0.016c0.007-0.046,0.016-0.091,0.026-0.137c0.023-0.107,0.057-0.209,0.088-0.314
					c0.05-0.171-0.037,0.048,0.051-0.127c0.043-0.086,0.087-0.172,0.134-0.255c0.098-0.171,0.207-0.333,0.321-0.493
					c0.067-0.09,0.079-0.106,0.036-0.049c0.021-0.026,0.042-0.052,0.063-0.078c0.064-0.077,0.127-0.154,0.193-0.229
					c0.15-0.174,0.307-0.342,0.464-0.51c0.344-0.366,0.363-0.952,0-1.315C390.129,248.777,389.507,248.757,389.161,249.124
					L389.161,249.124z"/>
			</g>
			<g>
				<path style="fill:#421B36;" d="M362.897,330.564c6.678-8.073,12.848-16.533,19.105-24.932c0.67-0.9-0.842-1.771-1.505-0.88
					c-6.209,8.349-12.502,16.631-18.279,25.288C361.949,330.443,362.582,330.944,362.897,330.564L362.897,330.564z"/>
			</g>
			<g>
				<path style="fill:#421B36;" d="M361.017,333.672c0.915,0,0.917-1.423,0-1.423C360.102,332.25,360.1,333.672,361.017,333.672
					L361.017,333.672z"/>
			</g>
			<g>
				<path style="fill:#421B36;" d="M355.14,368.798c17.885-4.447,33.138-22.108,38.107-39.371c0.322-1.12-1.3-1.507-1.708-0.471
					c-3.574,9.078-8.074,17.065-14.853,24.166c-6.301,6.6-13.917,10.753-21.739,15.217
					C354.696,368.482,354.866,368.866,355.14,368.798L355.14,368.798z"/>
			</g>
			<path style="opacity:0.2;fill:#421B36;" d="M417.459,363.069c1.414-0.576,3.597-0.608,3.373,1.495
				c0.464,2.892-3.072,2.065-3.569,0C417.86,364.164,417.365,363.61,417.459,363.069z M422.748,361.556l-0.778-2.416
				C421.63,360.013,421.756,361.117,422.748,361.556z M407.906,342.85c-0.736-0.438-0.744-0.976-1.002-1.824
				c-2.393-0.314-2.861,1.189-2.028,3.045c0.613,0.323,1.079,0.568,1.549,0.815C407.632,344.687,407.747,343.729,407.906,342.85z
				 M417.224,356c0.762,2.356,2.679,2.107,3.826,0.278l-0.349-1.085c-0.645-0.406-1.783-0.56-2.28-0.885
				C418.015,354.881,417.686,355.346,417.224,356z M408.759,347.493c1.331,2.133,2.472,0.731,3.778-0.413
				C411.857,344.675,408.981,345.164,408.759,347.493z M413.071,351.877c0.148,0.357,0.301,0.642,0.533,0.898
				c1.93,0.183,1.93,0.183,2.923-0.639c-0.087-0.789-0.587-1.506-0.873-2.379C413.75,349.611,413.793,350.718,413.071,351.877z
				 M405.678,353.126c1.458,0.041,1.694-0.134,2.621-1.955C406.796,348.058,404.05,350.725,405.678,353.126z M408.986,355.23
				c0.511,0.751,0.875,1.284,1.318,1.935c0.388-0.019,0.911-0.044,1.426-0.067c1.283-1.898-0.473-1.819-0.328-3.52
				C409.96,353.798,409.231,354.592,408.986,355.23z M416.102,359.977c0.227-1.459-0.787-1.358-1.865-1.435
				c-0.106,1.235-0.953,1.023-1.659,1.856C413.822,361.872,416.684,362.696,416.102,359.977z M404.556,359.48
				c0.165,4.482,4.42,2.6,1.945-0.941C405.707,358.924,405.135,359.202,404.556,359.48z M418.577,348.791
				c-0.297-0.279-0.594-0.554-0.892-0.832c0,0,0,0,0,0C417.934,348.424,418.247,348.679,418.577,348.791z M402.936,366.409
				c0.228-0.014,0.449-0.043,0.646-0.104c0.091-0.933,0.088-0.933-0.243-1.742c0.528-0.455,0.389-0.874,0.048-1.226
				C403.256,364.363,403.11,365.388,402.936,366.409z M409.879,366.36c1.127-0.165,2.777-0.584,2.742-1.797
				c-0.054-1.453-0.054-1.453-1.913-1.909c-0.82,0.452-2.139,0.716-2.015,1.909C409.103,365.184,409.511,365.804,409.879,366.36z
				 M395.978,393.785c0.08,0.643,0.141,1.152,0.2,1.637c0.39,0.316,0.764,0.557,1.134,0.717c0.801-0.305,1.608-0.614,2.421-0.928
				C399.345,393.208,397.412,391.765,395.978,393.785z M413.152,378.836c0.565,0.273,1.14,0.552,1.679,0.813
				c1.02-0.568,1.267-1.63,2.213-2.408C414.975,374.735,412.61,375.686,413.152,378.836z M391.564,390.239
				c0.94,3.092,2.74,2.746,3.823-0.097C394.146,388.389,392.523,387.953,391.564,390.239z M391.691,398.238
				c0.739-0.271,1.49-0.548,2.252-0.832C393.139,396.955,392.247,397.144,391.691,398.238z M410.491,383.579
				c4.857-0.536-1.317-6.186-1.733-1.87C409.051,382.651,409.183,383.753,410.491,383.579z M422.537,370.609
				c2.167,0.85,3.31-1.9,1.792-3.255C421.846,366.357,420.886,368.885,422.537,370.609z M379.112,402.131
				c0.003,0.182-0.002,0.367-0.007,0.552c0.756-0.257,1.593-0.543,2.512-0.861C380.8,401.34,379.992,401.57,379.112,402.131z
				 M422.381,384.49c-0.113,0.307-0.23,0.626-0.347,0.943c0.624-0.329,1.225-0.655,1.805-0.98
				C423.504,384.367,423.054,384.4,422.381,384.49z M407.59,378.72c0.083-1.592,0.683-2.523-1.217-3.167
				C403.063,376.598,404.367,380.139,407.59,378.72z M405.91,387.799c0.613-0.322,1.123-0.593,1.633-0.861
				c0.131-0.388,0.26-0.774,0.417-1.242c-1.136-2.025-3.804-1.724-3.639,0.888C404.829,386.974,405.382,387.395,405.91,387.799z
				 M429.009,381.006c-0.385-0.509-0.97-0.832-1.996-0.778c-1.088,0.603-0.85,1.706-0.697,2.759
				c0.001,0.003,0.004,0.004,0.005,0.007c1.023-0.639,1.942-1.264,2.726-1.87L429.009,381.006z M409.204,374.853
				c1.304,0.426,2.258,0.035,3.043-0.875c-0.076-0.633-0.151-1.246-0.225-1.871c-1.201-0.692-2.938,0.248-3.494,1.424
				C408.769,374.001,409.003,374.461,409.204,374.853z M422.741,375.849c-0.402,0.603-0.79,1.185-1.191,1.785
				C423.465,381.986,427.997,374.785,422.741,375.849z M420.633,382.741c-0.433-1.836-0.362-3.993-2.892-2.208
				c-1.18,0.92,0.651,1.774,0.302,2.891C419.124,383.865,419.856,383.221,420.633,382.741z M383.432,397.448
				c0.438,1.083-0.819,1.829-0.118,2.673c0.436,0.426,0.887,0.615,1.315,0.652c0.406-0.143,0.824-0.29,1.247-0.44
				c0.369-0.349,0.636-0.871,0.718-1.516C385.477,398.153,384.748,396.583,383.432,397.448z M374.443,398.367
				c0.233,0.677,0.384,1.111,0.538,1.559c0.59,0.276,1.164,0.545,1.662,0.779c2.004-0.537,1.559-2.716-0.045-3.319
				c-0.391,0.106-0.775,0.203-1.143,0.283C375.139,397.885,374.806,398.116,374.443,398.367z M388.669,396.393
				c2.8-0.316,2.6-2.933,0.199-3.69C387.451,393.503,387.094,395.566,388.669,396.393z M367.99,397.658
				c0.455,0.64,0.925,1.238,1.402,1.799C369.4,398.318,368.745,397.705,367.99,397.658z M401.745,371.873
				c-0.242,0.905-0.502,1.798-0.791,2.674c0.837,0.242,2.026,0.061,2.66-0.482C404.052,372.61,402.896,371.77,401.745,371.873z
				 M427.03,374.857l-0.749-2.328c-0.125,0.264-0.201,0.531-0.193,0.74C426.009,374.161,426.44,374.675,427.03,374.857z
				 M418.646,371.789c-0.498,0.58-0.872,1.016-1.277,1.488c0.939,2.621,2.681,1.612,3.861-0.247
				C420.582,371.558,419.478,371.811,418.646,371.789z M402.157,388.412c-1.209,0.318-1.676,1.174-2.039,2.255
				C401.932,394.222,405.041,389.982,402.157,388.412z M380.321,396.074c0.602,0.069,1.178-0.173,1.514-0.703
				C381.32,395.625,380.813,395.862,380.321,396.074z M396.529,384.565c-0.716,1.383-0.391,2.747,1.057,3.327
				C400.406,387.032,399.208,384.021,396.529,384.565z M404.536,368.978c0.709,0.609,1.325,1.136,2.029,1.739
				c2.04-1.346,1.184-2.514-0.012-3.94C405.384,367.206,404.809,367.999,404.536,368.978z M415.589,367.549
				c-1.03-0.279-2.481-0.267-2.205,1.188c-0.004,0-0.01,0-0.014,0C412.882,372.509,418.951,368.681,415.589,367.549z
				 M402.876,383.429c0.495-1.238,0.532-1.592,0.29-2.911c-1.678-0.59-2.093,0.937-3.011,1.687
				C400.88,383.229,401.61,383.945,402.876,383.429z M372.702,401.875c-0.216,0.149-0.465,0.198-0.723,0.226
				c0.584,0.509,1.137,0.939,1.631,1.269C373.525,402.637,373.418,402.534,372.702,401.875z M416.16,386.115
				c-0.346-0.748-0.273-1.843-1.525-2.092c-0.604,0.649-1.456,1.056-1.668,2.295C414.137,386.397,415.557,387.484,416.16,386.115z
				 M410.043,388.973c-1.1,0.235-0.382,1.486,0.296,1.936c0.466-0.199,0.93-0.398,1.39-0.599
				C411.695,389.694,410.807,388.936,410.043,388.973z M413.128,383.779c-0.217,0.085-0.067,0.207-0.01,0.353
				C413.187,383.992,413.333,383.879,413.128,383.779z"/>
		</g>
	</g>
</g>
<g id="Character_hand_3">
	<g>
		<path style="fill:#FFFFFF;" d="M356.016,61.91c0,0-31.951,58.538-35.354,75.506c-2.687,13.395,68.679,42.083,76.672,39.694
			c4.017-1.201,42.19-70.727,39.798-74.095C430.228,93.292,371.135,66.786,356.016,61.91z"/>
		<g>
			<path style="fill:#421B36;" d="M355.214,61.441c-4.413,8.086-8.685,16.252-12.882,24.452
				c-6.935,13.549-13.901,27.225-19.411,41.43c-0.977,2.52-1.91,5.068-2.629,7.676c-0.447,1.623-0.869,3.188-0.371,4.848
				c1.194,3.983,5.212,7.014,8.376,9.387c11.097,8.321,24.253,14.195,37.008,19.458c6.195,2.557,12.48,4.936,18.887,6.91
				c3.76,1.159,8.007,2.668,12.003,2.578c2.556-0.058,3.792-2.391,5.121-4.3c2.992-4.298,5.665-8.826,8.314-13.339
				c7.13-12.144,13.89-24.532,20.198-37.123c2.39-4.771,4.761-9.578,6.754-14.533c0.863-2.145,2.495-5.067,0.757-7.102
				c-3.177-3.721-7.985-6.33-12.131-8.784c-6.662-3.944-13.56-7.493-20.499-10.921c-13.794-6.813-27.854-13.256-42.208-18.807
				c-2.062-0.798-4.134-1.575-6.237-2.257c-1.141-0.37-1.63,1.425-0.494,1.793c12.322,3.997,24.242,9.652,35.964,15.11
				c13.228,6.16,26.872,12.425,38.926,20.729c1.728,1.19,3.472,2.442,4.924,3.968c0.231,0.243,0.462,0.492,0.666,0.76
				c0.18,0.238,0.049-0.066,0.059,0.017c0.052,0.427-0.032,0.586-0.157,1.08c-0.951,3.777-2.814,7.403-4.466,10.906
				c-5.692,12.076-12.072,23.85-18.629,35.474c-3.019,5.351-6.094,10.675-9.329,15.899c-1.887,3.047-3.738,6.393-6.2,9.028
				c-0.3,0.321-0.635,0.502-0.439,0.437c-0.377,0.125-0.819,0.116-1.336,0.101c-1.639-0.049-3.277-0.423-4.867-0.796
				c-5.421-1.268-10.719-3.108-15.934-5.037c-13.184-4.875-26.257-10.648-38.305-17.923c-4.499-2.717-9.184-5.683-12.7-9.65
				c-1.007-1.137-2.08-2.517-2.359-4.053c-0.294-1.619,0.509-3.485,0.984-5.004c1.872-5.995,4.429-11.786,7.008-17.503
				c3.174-7.037,6.547-13.985,9.996-20.891c5.274-10.558,10.731-21.027,16.342-31.41c0.301-0.556,0.602-1.113,0.905-1.668
				C357.392,61.329,355.787,60.389,355.214,61.441z"/>
		</g>
		<path style="fill:#421B36;" d="M351.516,69.567c30.821,12.268,84.672,40.969,83.8,42.027c0,0,2.976-4.591,3.881-8.455
			c1.103-4.704-68.922-37.835-83.181-41.228L351.516,69.567z"/>
		<path style="fill:#A0D2F4;" d="M361.057,68.502c-0.55,1.36-2.099,2.016-3.459,1.466c-1.36-0.55-2.016-2.099-1.466-3.459
			c0.55-1.36,2.099-2.016,3.459-1.466C360.952,65.593,361.608,67.142,361.057,68.502z"/>
		<path style="fill:#A0D2F4;" d="M368.572,71.543c-0.55,1.36-2.099,2.016-3.459,1.466c-1.36-0.55-2.016-2.099-1.466-3.459
			c0.55-1.36,2.099-2.016,3.459-1.466C368.466,68.635,369.122,70.184,368.572,71.543z"/>
		<path style="fill:#A0D2F4;" d="M253.216,149.36c-4.735-4.688-12.262-4.972-17.357-0.677
			c-14.183,11.956-26.071,24.052-40.601,39.946c0.156,1.736,7.178,8.414,14.555,15.996c0.057,0.059,0.116,0.118,0.173,0.177
			c-2.323,3.759-5.024,10.266-1.243,16.49c1.788,2.944,4.715,5.025,8.016,6.01c3.584,1.069,8.837,1.539,14.072-1.902
			c7.16,6.897,12.817,12.218,13.531,12.893c0.805,0.762,7.677-5.437,15.955-13.591c-4.891-5.684-4.558-11.708-3.447-15.697
			c0.924-3.318,2.951-6.283,5.862-8.125c7.451-4.716,15.488,0.062,18.513,2.256c5.965-6.414,10.326-11.394,10.612-12.295
			C292.548,188.672,266.815,162.823,253.216,149.36z"/>
		<path style="opacity:0.2;fill:#421B36;" d="M271.033,197.355c-1.292,0.598-2.348,1.074-2.994,1.366
			c-0.924-0.773-0.7-2.72,1.072-3.697C270.419,195.218,271.151,196.29,271.033,197.355z M281.412,177.551l-1.37-1.365
			C280.342,176.919,280.812,177.429,281.412,177.551z M270.432,178.905c-1.49-1.065-2.73-1.139-3.395,0.767
			C267.699,182.934,272.386,182.147,270.432,178.905z M266.557,191.801c-0.551-0.559-1.201-0.771-1.805-0.717
			c0.339,1.12,0.657,2.159,0.948,3.101c0.263-0.218,0.53-0.419,0.856-0.52C266.557,193.008,266.557,192.43,266.557,191.801z
			 M266.945,166.944c-0.58-2.856-4.643-1.174-3.702,0.945C264.495,169.96,266.637,168.9,266.945,166.944z M244.746,172.438
			c2.016-0.81-0.067-3.037-1.863-2.789C240.167,171.768,241.734,173.842,244.746,172.438z M240.786,174.961
			c-0.515-1.092-2.049-1.152-2.979-0.151c0.66,0.107,1.389,0.183,2.242,0.195C240.293,175.008,240.54,174.975,240.786,174.961z
			 M274.116,174.024c-0.661,0.243-1.208,0.355-1.951,0.49c-0.94,2.012-0.667,2.619,1.463,3.386
			C275.052,177.331,275.881,174.763,274.116,174.024z M270.672,189.443c1.341-2.95-3.348-3.402-3.271-0.334
			C267.987,191.008,269.738,191.275,270.672,189.443z M264.322,177.83c1.37,0.512,1.76-0.966,2.626-1.668
			c-0.485-1.496-1.307-1.9-3.382-1.604c-0.168,0.375-0.356,0.79-0.523,1.165C263.485,176.452,263.879,177.1,264.322,177.83z
			 M260.988,178.431c0.284,0.965,0.572,1.943,0.863,2.928C262.832,179.62,262.162,178.515,260.988,178.431z M277.109,173.261
			l-0.624-0.622c0.095,0.189,0.188,0.374,0.295,0.588C276.903,173.25,276.995,173.247,277.109,173.261z M244.595,164.182
			l-1.453,0.727c0.177,0.078,0.371,0.163,0.598,0.263C244.047,164.818,244.326,164.495,244.595,164.182z M261.66,164.361
			c2.755-2.092-3.157-4.968-2.678-1.485C258.216,164.402,260.754,165.016,261.66,164.361z M251.248,164.703
			c1.939,0.452,2.358-0.938,2.514-2.581C251.024,160.888,248.333,162.126,251.248,164.703z M278.943,186.974
			c-1.951-0.61-2.595,0.891-2.971,2.513c0.63,0.954,3.414,1.613,3.027-0.224C279.53,188.434,279.316,187.865,278.943,186.974z
			 M257.78,157.583l-2.858,1.43C254.74,161.892,260.067,159.628,257.78,157.583z M272.704,182.608
			c-0.556,0.636-0.848,1.32-1.082,2.039C274.14,188.836,277.5,183.063,272.704,182.608z M285.984,188.883
			c0.518-0.578,0.848-1.157,1.055-1.721c-0.169-0.075-0.361-0.156-0.588-0.25c-2.831,1.079-2.498,0.68-1.281,2.726
			C285.493,189.373,285.772,189.119,285.984,188.883z M259.975,173.167c1.845-0.24,2.82-0.52,2.272-2.571
			c-1.798-1.604-2.072-0.391-3.404,0.514c0.12,0.411,0.244,0.836,0.373,1.276C259.399,172.7,259.629,172.969,259.975,173.167z
			 M246.893,165.567c-0.337,0.668-0.665,1.324-1.002,1.993C249.06,171.708,251.467,165.223,246.893,165.567z M281.423,191.351
			c-0.755,0.493-1.109,0.983-1.183,1.42c0.758-0.417,1.482-0.832,2.154-1.238C282.066,191.356,281.73,191.269,281.423,191.351z
			 M236.47,172.743c0.656-3.07-2.857-3.667-3.218-0.927c0.12,0.344,0.299,0.702,0.578,1.053
			C234.631,173.456,235.501,173.352,236.47,172.743z M250.431,171.004c0.539-0.377,1.049-0.76,1.541-1.143
			C251.183,169.836,250.575,170.33,250.431,171.004z M239.208,168.671c1.893,0.256,2.069-1.447,1.367-2.477l-2.943,1.473
			C237.447,168.345,238.676,168.78,239.208,168.671z M263.104,184.614c0.51,2.669,3.009,1.359,4.156-0.36
			C265.769,183.026,263.779,182.277,263.104,184.614z M279.871,184.741c1.645,1.965,3.765,1.202,3.819-1.146
			c-0.567-0.756-1.593-1.048-2.426-0.895C280.792,183.376,280.623,184.164,279.871,184.741z M264.127,160.436
			c0.026-0.012,0.054-0.023,0.08-0.036l-1.048-1.045C263.352,159.699,263.655,160.062,264.127,160.436z M272.596,191.584
			c-0.36,0.543-0.648,0.979-0.909,1.373c0.648,1.854,0.648,1.854,2.301,1.601c1.239-1.721,1.258-1.809,0.593-2.974
			C273.973,191.584,273.334,191.584,272.596,191.584z M270.413,172.467c0.187-0.716,0.346-1.325,0.551-2.109
			C267.055,167.959,266.122,174.633,270.413,172.467z M279.27,179.373c-0.497-0.488-0.93-1.146-1.803-1.203
			c-0.513,0.471-1.021,0.938-1.576,1.448c0.43,0.755,0.739,1.3,1.034,1.82C278.989,181.685,279.169,181.203,279.27,179.373z
			 M256.408,165.918c-0.584-0.101-1.113,0.293-1.694,1.128c0.061,0.113,0.097,0.245,0.148,0.368
			C255.511,166.815,256.026,166.307,256.408,165.918z M257.552,166.672c0.078,0.268,0.167,0.574,0.262,0.903
			c0.052-0.128,0.103-0.249,0.162-0.399C257.829,166.983,257.689,166.821,257.552,166.672z M279.598,191.349
			c0.238-0.072,0.063-0.201,0.01-0.353C279.391,191.079,279.538,191.203,279.598,191.349z"/>
		<g>
			<path style="fill:#A0D2F4;" d="M351.341,98.211c0,0,17.456,61.384,23.352,61.999c5.218,0.544,39.984-12.855,41.172-13.869
				c4.428-7.484,18.505-35.609,18.505-35.609c0.947,0.861-31.035-19.029-36.67-20.568C387.566,87.398,349.914,95.656,351.341,98.211
				z"/>
			<path style="fill:#421B36;" d="M352.16,97.602c10.451,1.09,19.088,9.537,23.372,19.52c4.284,9.983,4.875,21.322,4.597,32.354
				c-0.108,4.273-0.813,9.36-4.479,11.308c-3.938,2.092-8.475-0.932-11.488-4.197c-11.79-12.774-26.496-50.981-12.476-59.197"/>
			<path style="fill:#FFAE7A;" d="M358.735,99.316c-1.565-0.431-73.971,22.165-83.632,26.345
				c-16.109,6.97-42.08,29.331-43.427,37.721c-1.346,8.389,5.598,9.346,9.9,7.587c4.302-1.759,25.715-19.333,25.715-19.333
				s-14.364,19.836-18.639,31.994c-4.275,12.159,7.252,12.344,8.697,12.733c1.445,0.389,5.493,8.042,14.983-0.799
				c9.49-8.841,20.931-32.38,20.931-32.38s-14.161,29.918-12.545,37.464c1.616,7.545,9.547,8.222,14.382,1.774
				c4.835-6.447,12.081-30.66,12.081-30.66s3.105-4.087,11.354-3.234c8.248,0.853,26.468-1.996,32.653-13.187
				c3.778-6.835,3.114-13.012,3.114-13.012s25.399-4.456,25.534-6.465C380.323,128.621,375.099,103.827,358.735,99.316z"/>
			<g>
				<path style="fill:#421B36;" d="M237.656,156.184c1.226,0.844,1.503,2.236,1.453,3.638c-0.049,1.372-0.225,2.777-0.74,4.059
					c-1.001,2.49-3.389,3.743-6.01,3.489c-1.19-0.116-1.182,1.745,0,1.859c3.478,0.338,6.532-1.616,7.797-4.839
					c0.634-1.616,0.865-3.496,0.82-5.225c-0.049-1.872-0.823-3.515-2.381-4.586C237.606,153.899,236.676,155.509,237.656,156.184
					L237.656,156.184z"/>
			</g>
			<g>
				<path style="fill:#421B36;" d="M286.501,147.228c-10.919,15.483-20.996,31.545-30.186,48.113
					c-0.581,1.047,1.024,1.986,1.605,0.939c9.19-16.568,19.266-32.63,30.186-48.113
					C288.797,147.187,287.186,146.257,286.501,147.228L286.501,147.228z"/>
			</g>
			<g>
				<path style="fill:#421B36;" d="M299.178,155.394c-2.081,2.619-3.804,5.521-5.486,8.405c-1.694,2.904-3.309,5.852-4.915,8.804
					c-0.572,1.051,1.033,1.991,1.605,0.939c1.566-2.878,3.14-5.752,4.787-8.585c1.637-2.815,3.293-5.693,5.323-8.248
					C301.23,155.782,299.922,154.458,299.178,155.394L299.178,155.394z"/>
			</g>
			<g>
				<path style="fill:#421B36;" d="M352.652,97.909c24.284,4.804,29.087,33.053,26.534,53.772c-0.034,0.279,0.439,0.344,0.493,0.067
					c3.951-20.408-0.856-52.934-27.003-54.017C352.575,97.727,352.55,97.889,352.652,97.909L352.652,97.909z"/>
			</g>
			<g>
				<path style="fill:#421B36;" d="M249.527,183.097c2.43-0.063,3.738,2.431,3.946,4.542c0.118,1.2,0.107,2.511-0.133,3.697
					c-0.175,0.868-0.757,2.163-1.868,1.8c-1.14-0.373-1.629,1.422-0.494,1.793c1.597,0.522,3.175-0.559,3.805-2
					c0.663-1.517,0.694-3.453,0.567-5.081c-0.132-1.69-0.604-3.331-1.709-4.647c-1.016-1.209-2.517-2.004-4.114-1.963
					C248.332,181.268,248.328,183.128,249.527,183.097L249.527,183.097z"/>
			</g>
			<g>
				<path style="fill:#421B36;" d="M262.183,189.167c0.8-0.401,1.737-0.174,2.464,0.278c0.86,0.535,1.349,1.438,1.587,2.4
					c0.263,1.064,0.238,2.229,0.043,3.303c-0.166,0.914-0.592,2.24-1.717,2.293c-1.191,0.056-1.198,1.915,0,1.859
					c3.685-0.172,4.147-5.206,3.467-7.95c-0.365-1.474-1.232-2.814-2.563-3.584c-1.305-0.755-2.861-0.886-4.22-0.205
					C260.174,188.098,261.115,189.702,262.183,189.167L262.183,189.167z"/>
			</g>
			<g>
				<path style="fill:#421B36;" d="M281.638,197.356c1.797-0.058,3.573,0.847,4.504,2.404c0.979,1.639,0.859,3.738-0.17,5.319
					c-0.655,1.006,0.954,1.939,1.606,0.938c1.379-2.119,1.473-5.016,0.169-7.196c-1.256-2.1-3.667-3.404-6.109-3.325
					C280.444,195.536,280.439,197.395,281.638,197.356L281.638,197.356z"/>
			</g>
			<g>
				<path style="fill:#421B36;" d="M264.315,156.853c2.881-5.39,6.413-10.396,10.539-14.905c0.807-0.881-0.505-2.2-1.315-1.315
					c-4.23,4.622-7.877,9.756-10.83,15.281C262.146,156.969,263.75,157.91,264.315,156.853L264.315,156.853z"/>
			</g>
			<path style="opacity:0.2;fill:#421B36;" d="M404.055,150.231c-0.251,0.29-0.529,0.611-0.792,0.916l-1.912,0.729
				c-1.209-0.626-1.5-2.036-0.63-3.378c0.497-0.128,1.104-0.285,1.682-0.434C403.249,148.578,403.766,149.259,404.055,150.231z
				 M392.288,97.516c0.91,0.755,1.832,1.565,2.747,2.419c0.119-0.065,0.227-0.121,0.359-0.197
				C396.079,97.546,393.581,96.069,392.288,97.516z M412.209,108.134c1.035-2.937-4.008-3.557-2.967-1.091
				c-0.277,0.286-0.555,0.572-0.947,0.976C409.731,109.429,411.004,109.789,412.209,108.134z M402.829,143.265
				c2.491-1.838-0.516-4.742-2.657-2.55C399.801,142.433,401.049,144.29,402.829,143.265z M418.777,126.487
				c0.957-0.328,1.614-0.87,2.05-1.674c-0.234-0.543-0.363-0.981-0.523-1.549C417.42,121.16,415.821,125.816,418.777,126.487z
				 M404.639,102.696c-0.666,1.154,0.924,1.297,1.157,2.446C410.926,104.002,406.462,98.973,404.639,102.696z M399.424,147.711
				c0.337-1.412-0.356-3.202-1.525-3.513c-0.517,0.9-1.035,1.762-1.546,2.586C396.751,147.632,397.75,147.795,399.424,147.711z
				 M429.247,107.983c0.006-0.042,0.005-0.078,0.009-0.119l-2.988-1.676C425.394,107.976,427.478,110.589,429.247,107.983z
				 M402.037,105.584c-0.575,0.097-0.976,0.341-1.276,0.692c0.675,0.915,1.308,1.858,1.882,2.829
				C403.767,108.45,404.356,106.592,402.037,105.584z M431.89,113.274c1.741,0.143,2.119-2.025,1.426-3.133l-1.116-0.626
				c-0.422,0.018-0.928,0.229-1.516,0.737C429.889,112.291,430.294,112.504,431.89,113.274z M421.042,132.841
				c-0.428-2.348-3.894-1.504-3.729,0.898C418.51,135.21,420.982,134.923,421.042,132.841z M422.982,105.071
				c0.32-0.069,0.59-0.159,0.823-0.264l-2.063-1.157C421.987,104.211,422.277,104.757,422.982,105.071z M411.843,125.622
				c0.09-0.456,0.19-0.965,0.305-1.543c-0.616-0.432-0.625-1.416-1.636-1.647c-0.521,0.351-1.106,0.744-1.703,1.145
				C408.127,125.704,410.198,127.058,411.843,125.622z M411.218,143.157c1.209-1.252,1.591-2.953-0.523-3.412
				c-0.709,0.38-1.271,0.683-1.836,0.986c0.178,0.703,0.11,1.306-0.295,1.897C409.421,143.266,410.234,143.514,411.218,143.157z
				 M421.954,111.368c0.671,1.932,0.806,2.031,2.519,1.729c-0.42-0.886,0.437-1.136,0.886-1.563
				C424.895,109.211,422.104,108.729,421.954,111.368z M388.82,92.915c-0.46,0.374-0.856,0.695-1.247,1.013
				c0.735,0.514,1.51,1.073,2.318,1.686c0.61-0.406,1.129-0.976,1.329-1.582C390.681,93.079,389.6,93.464,388.82,92.915z
				 M408.787,133.386c0.21,0.486,0.34,0.854,0.755,1.265C415.451,134.949,410.32,127.781,408.787,133.386z M406.904,130.285
				c1.88,0.343,0.39-1.665,1.453-2.417C405.731,124.732,402.737,130.031,406.904,130.285z M418.216,105.605
				c-0.308,0.463-0.593,0.895-0.87,1.315c0.373,0.367,0.697,0.686,0.981,0.965c-0.095,0.379-0.161,0.651-0.244,0.988
				c0.379,0.18,0.739,0.351,1.108,0.527c0.577-0.484,1.105-0.928,1.549-1.302C420.717,106.412,420.104,104.901,418.216,105.605z
				 M406.491,144.071c-1.107,0.192-1.397,1.13-1.726,2.1c0.452,0.571,0.882,1.113,1.389,1.752
				C409.452,148.329,407.974,145.516,406.491,144.071z M410.864,147.993c-0.697,0.124-1.192,0.444-1.517,0.834l1.732-0.661
				C411.008,148.103,410.936,148.043,410.864,147.993z M407.848,138.157c0.032-0.552,0.067-1.117,0.105-1.748
				c-0.612-0.353-1.217-0.703-1.932-1.116c-0.532,0.415-0.995,0.776-1.53,1.194c-0.051,0.5-0.106,1.059-0.152,1.522
				C405.566,138.867,406.689,138.578,407.848,138.157z M402.494,100.351c1.486-0.703,1.127-3.151-0.598-3.414
				C399.261,97.635,399.723,101.215,402.494,100.351z M395.961,153.551c-0.003,0.136,0.019,0.247,0.029,0.37l2.493-0.951
				C397.771,152.49,396.763,152.539,395.961,153.551z M418.001,142.229l1.221-2.35C417.738,140.569,417.42,141.468,418.001,142.229z
				 M397.165,101.01c-0.139,0.175-0.284,0.378-0.424,0.581c0.846,0.862,1.669,1.768,2.458,2.707
				c0.055-0.011,0.108-0.015,0.163-0.028C399.482,101.878,399.277,101.589,397.165,101.01z M415.573,126.888
				c-0.819,0.221-1.434,0.386-2.151,0.578c0.192,0.692,0.168,1.333-0.038,2.006c0.48,0.782,1.514,2.13,2.069,0.668
				C416.2,128.889,417.304,127.979,415.573,126.888z M413.547,136.877c-0.1,0.26-0.336,0.468-0.585,0.8
				c1.051,1.924,3.812,1.709,3.423-0.709C416.723,135.234,413.868,135.545,413.547,136.877z M426.802,125.293l1.406-2.705
				c-0.212-0.102-0.422-0.204-0.636-0.307C425.447,123.173,425.843,124.605,426.802,125.293z M426.487,114.871
				c-1.907,1.469,0.797,2.838,2.311,2.378C430.968,115.367,428.476,113.836,426.487,114.871z M395.373,90.257
				c-0.008-0.022-0.02-0.034-0.029-0.055l-3.952,0.061c-0.003,0.005-0.008,0.009-0.011,0.014
				C392.177,92.002,394.901,92.123,395.373,90.257z M390.788,155.566c0.056-0.264,0.054-0.519,0.009-0.758
				c-0.493,0.636-0.866,1.097-1.073,1.348C390.094,156.103,390.46,155.921,390.788,155.566z M394.248,152.191
				c1.01-1.232,0.968-2.289,0.49-2.889c-0.577,0.87-1.134,1.68-1.651,2.411C393.474,151.872,393.857,152.03,394.248,152.191z
				 M386.407,90.34l-3.112,0.048C384.365,92.379,386.313,91.91,386.407,90.34z M413.124,144.988
				c-0.228,0.886,0.101,1.532,0.688,2.135l2.051-0.782l0.539-1.038c-0.395-0.424-0.826-0.887-1.269-1.363
				C414.536,144.631,414.536,144.631,413.124,144.988z M413.235,103.654c0.88,1.887,2.116,0.768,3.35-0.142
				c-0.144-0.705-0.185-1.126-0.155-1.838C415.071,101.263,413.174,102.013,413.235,103.654z M405.856,121.542
				c0.258,0.11,0.515,0.212,0.759,0.317c2.615-1.527,0.76-3.509-0.758-3.173c0.066,0.869,0.086,1.747,0.021,2.637
				C405.872,121.396,405.862,121.469,405.856,121.542z M409.241,117.503c1.178,0.228,2.18,0.173,3.066-0.862
				C411.471,113.248,408.025,114.345,409.241,117.503z M396.997,92.721c-0.331,0.343-0.693,0.719-1.087,1.129
				c0.198,0.754,0.341,1.299,0.475,1.804c1.44,0.275,2.746,0.364,3.03-1.345C398.766,93.529,398.176,92.817,396.997,92.721z
				 M403.435,132.343c-0.257,0.731-0.53,1.454-0.814,2.17C403.49,134.038,403.963,133.043,403.435,132.343z M418.18,117.128
				c0.314,0.11,0.693,0.244,1.044,0.367c1.978-0.968,2.071-1.514,0.607-3.328c-1.2-0.089-1.2-0.089-2.201,0.947
				C418.505,115.627,417.767,116.451,418.18,117.128z M415.778,113.172c0.461-0.785,0.461-0.785,0.368-2.518
				C412.727,107.853,412.186,113.608,415.778,113.172z M412.784,120.289c0.519,0.895,1.412,1.107,2.079,1.611
				c0.716-0.442,1.524-0.564,2.092-1.348C415.939,118.013,414.443,118.88,412.784,120.289z M405.39,113.264
				c0.738-0.828,2.069-0.847,2.594-2.053c-0.154-0.299-0.309-0.606-0.543-1.066C405.04,109.645,403.43,111.402,405.39,113.264z
				 M404.803,95.283c0.566,0.195,1.008,0.347,1.429,0.491c0.213-0.173,0.401-0.325,0.6-0.486l-2.059-1.155
				C404.724,94.469,404.723,94.851,404.803,95.283z M423.522,126.958c-0.532,0.183-1.017,0.353-1.464,0.508
				c-0.521,1.748,1.322,3.048,2.367,2.4l0.643-1.237c0.005-0.046,0.017-0.084,0.021-0.133
				C424.866,127.842,423.867,127.741,423.522,126.958z M409.135,98.901c0.648,0.5,1.275,0.984,1.871,1.443
				c1.049-0.693,1.105-1.624,0.745-2.298l-1.489-0.835C409.765,97.316,409.307,97.8,409.135,98.901z M424.101,121.364
				c1.132,0.06,0.339-1.51,0.319-2.242c-0.757-0.897-2.61-0.012-2.609,1.055C422.017,121.445,423.325,120.871,424.101,121.364z"/>
		</g>
	</g>
</g>
<g id="Character_hand_2">
	<g>
		<path style="fill:#FFFFFF;" d="M93.687,340.995c0,0-16.195,59.41-15.345,75.251c0.671,12.505,90.484,31.309,97.476,27.308
			c3.514-2.011,20.26-75.765,17.189-78.186C184.139,358.376,109.167,341.753,93.687,340.995z"/>
		<g>
			<path style="fill:#421B36;" d="M92.791,340.747c-2.79,10.241-5.371,20.544-7.801,30.876c-1.943,8.259-3.787,16.548-5.316,24.895
				c-1.122,6.123-2.362,12.469-2.292,18.722c0.04,3.603,2.774,5.659,5.644,7.414c4.795,2.931,10.193,4.939,15.475,6.791
				c14.446,5.067,29.458,8.683,44.464,11.646c6.542,1.292,13.122,2.445,19.744,3.248c3.876,0.47,8.162,1.172,12.059,0.496
				c2.696-0.468,3.27-3.258,4.057-5.546c1.851-5.386,3.273-10.931,4.676-16.447c3.622-14.234,6.872-28.623,9.314-43.11
				c0.706-4.187,1.754-8.739,1.479-13.015c-0.199-3.096-4.151-4.061-6.607-5.031c-6.016-2.376-12.283-4.152-18.51-5.876
				c-8.145-2.255-16.351-4.289-24.58-6.208c-14.816-3.455-29.776-6.82-44.859-8.895c-2.008-0.276-4.025-0.537-6.05-0.642
				c-1.196-0.062-1.193,1.798,0,1.859c4.922,0.254,9.836,1.18,14.68,2.034c7.533,1.328,15.031,2.853,22.507,4.466
				c15.689,3.386,31.395,7.045,46.74,11.778c4.597,1.418,9.535,2.773,13.735,5.189c0.277,0.159,0.54,0.338,0.812,0.504
				c0.295,0.18,0.187,0.109,0.129-0.004c0.209,0.406,0.143,0.672,0.158,1.171c0.051,1.708-0.168,3.437-0.373,5.129
				c-1.599,13.192-4.672,26.293-7.7,39.216c-1.548,6.608-3.174,13.203-5.011,19.738c-1.027,3.655-1.86,7.905-3.787,11.227
				c-0.049,0.085-0.352,0.507-0.195,0.325c-0.137,0.159-0.023,0.068-0.066,0.082c-0.447,0.15-0.901,0.247-1.324,0.298
				c-1.643,0.199-3.342,0.098-4.988,0c-5.539-0.332-11.053-1.188-16.519-2.116c-14.635-2.486-29.187-5.822-43.414-10.063
				c-6.294-1.876-12.586-3.916-18.608-6.554c-3.498-1.532-8.045-3.334-10.45-6.482c-0.942-1.233-0.804-2.402-0.757-3.961
				c0.086-2.894,0.438-5.784,0.848-8.648c1.089-7.613,2.649-15.16,4.295-22.669c2.873-13.102,6.118-26.128,9.578-39.087
				c0.201-0.752,0.402-1.504,0.606-2.255C94.899,340.086,93.105,339.592,92.791,340.747z"/>
		</g>
		<path style="fill:#421B36;" d="M91.265,348.841c32.115,3.609,102.652,23.415,102.082,24.557c0,0,1.715-4.77,1.645-8.408
			c-0.085-4.429-86.994-24.348-101.304-23.995L91.265,348.841z"/>
		<path style="fill:#A0D2F4;" d="M101.22,345.369c-0.292,1.496-1.742,2.471-3.237,2.178c-1.495-0.293-2.471-1.742-2.178-3.237
			c0.292-1.496,1.742-2.471,3.237-2.178C100.538,342.424,101.513,343.874,101.22,345.369z"/>
		<path style="fill:#A0D2F4;" d="M109.892,347.102c-0.292,1.496-1.742,2.471-3.237,2.178c-1.496-0.292-2.471-1.742-2.178-3.237
			c0.292-1.495,1.742-2.471,3.237-2.178C109.21,344.157,110.185,345.606,109.892,347.102z"/>
		<g>
			<g>
				<path style="fill:#A0D2F4;" d="M80.289,398.992c0,0,33.629-33.049,44.509-33.272c14.673-0.301,35.907,45.228,29.373,51.369
					c-3.955,3.717-18.713,21.147-27.352,19.418C66.899,424.516,78.398,411.468,80.289,398.992z"/>
				<g>
					<path style="fill:#944D4D;" d="M171.992,337.916c1.213-0.129,63.598-27.617,71.753-22.746c8.486,5.069,4.454,9.844-1.836,13.66
						c-3.763,2.283-35.524,16.557-35.524,16.557s42.645-4.591,51.257,0.792c9.042,5.652,0.201,11.843,0.201,11.843
						s9.457,7.976-2.808,12.68c-6.153,2.36-39.524,0.985-39.524,0.985s30.447,13.837,33.476,20.12
						c3.029,6.283-1.582,9.456-8.989,8.473c-2.885-0.383-30.244-11.897-30.244-11.897s-36.737,15.286-42.987,16.24
						c-6.25,0.954-10.147-1.085-10.147-1.085s-9.151,9.502-10.969,8.704c-4.382-1.923-26.435-36.17-20.537-40.146
						c7.606-5.127,36.041-20.757,38.599-25.088C166.271,342.678,171.992,337.916,171.992,337.916z"/>
					<g>
						<path style="fill:#421B36;" d="M191.664,341.303c4.869,10.453,7.196,21.913,6.85,33.436c-0.036,1.197,1.823,1.196,1.859,0
							c0.356-11.862-2.095-23.62-7.104-34.374C192.765,339.281,191.161,340.224,191.664,341.303L191.664,341.303z"/>
					</g>
					<g>
						<path style="fill:#421B36;" d="M200.083,371.934c5.236,0.065,10.471,0.129,15.707,0.194c1.197,0.015,1.198-1.845,0-1.859
							c-5.236-0.065-10.471-0.129-15.707-0.194C198.886,370.06,198.885,371.919,200.083,371.934L200.083,371.934z"/>
					</g>
					<g>
						<path style="fill:#421B36;" d="M199.528,359.502c19.148-1.162,38.33-1.704,57.513-1.626c1.197,0.005,1.198-1.854,0-1.859
							c-19.184-0.079-38.365,0.464-57.513,1.626C198.339,357.714,198.331,359.574,199.528,359.502L199.528,359.502z"/>
					</g>
					<g>
						<path style="fill:#421B36;" d="M204.437,344.234c-2.711,1.366-5.695,2.141-8.727,2.274c-1.192,0.053-1.198,1.912,0,1.859
							c3.371-0.149,6.653-1.01,9.666-2.528C206.444,345.301,205.504,343.697,204.437,344.234L204.437,344.234z"/>
					</g>
				</g>
			</g>
			<g>
				<path style="fill:#421B36;" d="M122.314,368.868c0.776,10.307,6.285,19.206,11.609,27.772
					c4.951,7.966,10.254,15.969,18.196,21.252c0.999,0.665,1.931-0.945,0.939-1.605c-7.664-5.097-12.755-12.904-17.529-20.585
					c-5.129-8.251-10.607-16.893-11.355-26.833C124.084,367.682,122.224,367.673,122.314,368.868L122.314,368.868z"/>
			</g>
			<path style="fill:#421B36;" d="M138.58,422.823c-1.71,1.71-4.32,1.871-5.83,0.361c-1.51-1.51-1.349-4.121,0.361-5.83
				c1.71-1.71,4.32-1.871,5.83-0.361C140.451,418.503,140.29,421.113,138.58,422.823z"/>
			<g>
				<path style="fill:#421B36;" d="M97.316,384.606c0.843,22.489,15.353,42.366,36.487,50.054c1.126,0.41,1.612-1.386,0.494-1.793
					c-20.33-7.396-34.312-26.646-35.122-48.261C99.13,383.413,97.271,383.407,97.316,384.606L97.316,384.606z"/>
			</g>
			<path style="opacity:0.2;fill:#421B36;" d="M109.408,406.054c0.56,1.167,1.158,2.293,1.799,3.36
				c-1.808,1.047-3.428-1.16-2.61-3.291C108.875,406.099,109.14,406.076,109.408,406.054z M108.04,410.579
				c-2.045-1.327-4.078,0.076-3.366,2.397c0.253,0.866,1.476,0.522,2.138,0.918c0.479,0.078,0.985-0.327,0.904-0.825
				C107.466,412.102,108.308,411.57,108.04,410.579z M113.895,413.195c-0.394-0.461-0.774-0.947-1.144-1.453
				C112.813,412.324,113.265,412.859,113.895,413.195z M86.536,408.9c0.422-2.186-2.8-4.99-3.396-1.795
				C82.581,409.164,85.034,410.409,86.536,408.9z M93.026,405.474c-0.459,0.228-0.988,0.49-1.54,0.763
				c-0.177,0.561-0.302,0.953-0.427,1.348c0.409,2.197,3.844,2.377,3.842-0.058C94.203,407.002,94.433,405.607,93.026,405.474z
				 M101.803,383.877c0.418-0.119,0.715-0.301,0.958-0.508c-0.279-1.656-0.448-2.884-0.53-3.519c-0.049-0.047-0.09-0.1-0.141-0.145
				c-0.156,0.012-0.273,0.071-0.411,0.106l-1.543,1.436C99.808,382.367,100.342,383.71,101.803,383.877z M82.848,416.913
				c1.524,0.912,1.524,0.912,2.619,0.774c0.405-0.575,0.805-1.142,1.261-1.785c-0.398-1.439-1.323-2.062-2.783-1.255
				C82.529,414.856,82.766,415.802,82.848,416.913z M125.766,431.001c-0.302,1.501-0.318,3.848,1.486,4.296
				c0.446-0.778,1.11-1.354,1.973-1.71C128.938,431.667,127.431,431.284,125.766,431.001z M95.991,427.612
				c1.05,0.449,2.123,0.891,3.207,1.327C98.993,427.589,97.634,426.2,95.991,427.612z M89.697,422.288
				c0.644-1.702,0.836-4.056-1.64-3.986c-0.801,0.907-1.045,1.469-1.344,2.747C87.74,421.502,88.423,422.44,89.697,422.288z
				 M95.833,403.323c0.052,2.542,2.536,2.21,3.736,0.649C99.556,401.39,96.854,401.009,95.833,403.323z M87.495,410.19
				c-0.199,1.99-0.726,3.499,1.904,2.999C92.567,412.246,89.927,408.964,87.495,410.19z M97.396,392.482
				c-0.583,0.215-1.119,0.415-1.666,0.619c0.189,0.735,0.311,1.391,0.357,2.08c1.701,1.162,1.912,1.177,3.425,0.259
				C99.767,393.784,98.314,393.363,97.396,392.482z M97.734,409.688c-2.106,0.487-1.597,1.531-1.887,3.264
				c1.159,0.484,2.191,0.217,3.192-0.184C99.517,411.268,99.006,410.301,97.734,409.688z M89.377,405.266
				c0.802-1.782,2.245-2.893-0.542-3.765C86.099,401.093,86.913,405.873,89.377,405.266z M122.728,427.279
				c-0.75,0.697-1.214,1.534-1.29,2.594c0.514,0.555,1.194,0.781,1.884,1.116c0.507-0.526,1.184-0.928,1.833-1.203
				C125.659,428.125,123.846,427.793,122.728,427.279z M104.232,393.932c0.427,0.884,0.871,1.63,1.396,2.039
				c-0.259-0.882-0.5-1.753-0.726-2.612C104.647,393.488,104.417,393.666,104.232,393.932z M85.333,401.083
				c1.599-2.022,1.193-2.63,0.049-4.243C82.446,397.597,82.316,400.28,85.333,401.083z M80.275,409.725
				c-0.795,0.645-0.866,0.717-1.556,2.38c-0.027,0.19-0.052,0.376-0.076,0.564C80.917,415.411,83.894,410.698,80.275,409.725z
				 M95.167,390.068c-0.944-0.815-1.974-1.31-3.19-1.002c-0.346,0.533-0.623,0.965-0.921,1.427c0.388,0.491,0.787,0.994,1.258,1.588
				C94.023,392.131,94.328,391.919,95.167,390.068z M102.149,426.751c0.334-0.183,0.593-0.323,0.883-0.482
				c0.061-0.844,0.197-1.586,0.452-2.42c-0.829-0.354-1.575-0.674-2.39-1.021C98.85,425.255,100.398,425.258,102.149,426.751z
				 M115.525,418.953c-1.037,0.078-2.256-0.415-3.052,1.014c0.164,0.857,0.834,1.261,1.358,1.774
				C115.907,422.326,117.394,420.506,115.525,418.953z M108.016,420.202c-0.652-1.187-1.766-1.157-2.949-1.642
				c-0.324,0.59-1.246,0.899-1.186,1.819C105.436,422.255,106.937,422.667,108.016,420.202z M102.771,414.29
				c-0.681,0.251-1.858,0.285-2.016,1.103c0.127,0.761-1.59,1.25-0.442,1.916c0.876,0.485,3.496,1.195,3.056-0.636
				c-0.18-0.551-0.029-0.876,0.293-1.252C103.375,415.054,103.087,414.691,102.771,414.29z M90.958,399.644
				c1.561,0.674,3.454,1.147,4.309-0.787C93.632,396.594,91.522,396.748,90.958,399.644z M104.075,428.267
				c-0.499,2.707,3.139,2.584,3.983,0.674C106.742,427.151,106.036,427.028,104.075,428.267z M94.415,415.648
				c0.351-0.613-0.528-0.984-0.921-1.367C87.981,415.567,94.394,420.947,94.415,415.648z M102.512,388.345
				c-1.983,0.747-1.983,0.747-2.579,2.725c0.529,1.486,3.168,1.572,2.898-0.235C102.578,389.945,103.751,388.818,102.512,388.345z
				 M111.995,432.396c-0.694-0.302-1.384-0.601-2.1-0.912c-0.466,0.234-0.865,0.589-1.115,0.994c1.087,0.365,2.16,0.711,3.219,1.04
				C112.095,433.21,112.11,432.842,111.995,432.396z M107.036,401.863c-0.543-0.058-1.121-0.122-1.845-0.2
				C101.276,405.626,110.147,405.546,107.036,401.863z M100.458,400.033c1.294,0.538,2.42,0.423,3.342-0.715
				c0.22-1.157-1.236-1.853-2.326-2.045c-0.477,0.475-1.011,1.01-1.582,1.578C100.11,399.304,100.284,399.67,100.458,400.033z
				 M132.869,421.457c-0.818-0.119-1.646-0.257-2.479-0.415c-0.021,0.066-0.019,0.137-0.045,0.201
				C131.431,422.506,132.219,422.224,132.869,421.457z M97.063,387.677c0.966-0.807,1.954-0.521,2.435-1.871
				c-0.804-1.503-2.293-1.598-3.146-1.039l-0.355,0.331C95.487,385.732,95.575,386.737,97.063,387.677z M80.962,402.02
				c-0.06-0.002-0.128-0.013-0.194-0.02c-0.203,0.828-0.423,1.751-0.647,2.743c0.311,0.088,0.669,0.139,1.088,0.15
				C82.126,404.239,82.745,401.969,80.962,402.02z M114.732,426.956c-0.607,0.459-1.206,0.911-1.766,1.333
				c0.145,0.96,0.1,1.91,1.174,2.353c0.524-0.132,1.09-0.273,1.685-0.423c0.158-0.439,0.314-0.873,0.455-1.264
				C115.996,428.078,115.543,427.413,114.732,426.956z M93.116,422.615c-1.148,0.231-1.347,1.23-1.705,2.099
				C94.068,427.961,96.668,423.861,93.116,422.615z M128.927,423.943c-1.095-0.581-2.719-1.236-3.257,0.359
				c0.291,0.676,0.567,1.316,0.84,1.949C128.197,426.805,129.83,425.207,128.927,423.943z M103.424,406.746
				c-1.844-2.281-4.418-0.244-2.574,2.096C102.756,409.337,103.056,408.445,103.424,406.746z M134.38,423.808
				c-0.344,2.49,2.175,3.484,3.311,1.264C137.143,423.109,136.093,422.308,134.38,423.808z M109.043,414.547
				c-0.253,1.304-0.004,3.453,1.733,3.209C113.418,416.135,111.675,414.103,109.043,414.547z M89.804,393.4
				c-1.437-0.776-2.136-0.108-2.308,1.345c0.161,0.418,0.324,0.843,0.521,1.354c0.975-0.378,1.91,0.658,3.033-0.215
				C90.597,394.981,90.205,394.198,89.804,393.4z M117.934,426.263c1.438,0.603,2.114-0.529,3.023-1.235
				C119.463,421.648,116.963,423.034,117.934,426.263z M146.069,423.322c-1.208-0.385-2.775-0.47-3.132,1.121
				c0.737,0.661,1.221,2.415,2.296,1.799c0.3-0.286,0.578-0.556,0.853-0.825C146.375,424.999,146.427,424.46,146.069,423.322z
				 M111.598,425.563c1.807-2.05-3.924-3.614-3.1-0.186C109.627,426.47,110.624,425.94,111.598,425.563z M117.538,416.48
				c0.116,0.937,0.671,1.121,1.504,0.857c-0.163-0.083-0.329-0.162-0.491-0.247C118.205,416.906,117.87,416.697,117.538,416.48z
				 M79.976,418.783c0.565,0.516,1.26,1.058,2.076,1.622c0.002-0.07,0.006-0.137,0.005-0.218
				C82.194,419.063,80.984,418.787,79.976,418.783z M122.896,436.298c0.445,0.078,0.866,0.142,1.281,0.202
				C123.832,436.204,123.383,436.146,122.896,436.298z M129.918,428.558c0.455,0.817,1.234,1.404,1.81,2.028
				C135.559,429.465,132.401,425.534,129.918,428.558z M96.582,422.044c0.747-0.561,1.938-0.415,2.519-1.499
				c-0.588-0.668-1.158-1.316-1.714-1.947c-1.117,0.125-1.082,1.223-1.819,1.726C96.087,420.85,95.771,421.684,96.582,422.044z
				 M119.863,434.502c1.841-1.255,0.796-1.985-0.555-2.982C116.55,432.025,117.373,434.581,119.863,434.502z M124.799,420.339
				c-0.081-0.262-0.157-0.506-0.234-0.756c-0.558-0.178-1.111-0.369-1.662-0.571C120.178,419.53,121.634,423.17,124.799,420.339z
				 M136.266,431.913c-0.72,0.433-1.36,0.816-2.069,1.242c0.119,0.495,0.391,0.86,0.727,1.108c0.843-0.487,1.68-1.018,2.505-1.585
				C137.056,432.433,136.667,432.176,136.266,431.913z M140.871,428.055c-0.459-0.157-0.941-0.326-1.357-0.468
				c-0.86,0.436-0.684,1.104-0.616,1.88c0.728,0.196,1.327,0.576,2.021,0.588c0.059-0.048,0.12-0.095,0.179-0.142
				C140.787,429.341,140.79,429.242,140.871,428.055z"/>
		</g>
		<path style="fill:#A0D2F4;" d="M264.871,282.62c-0.289-0.298-0.585-0.599-0.88-0.901c-5.364,4.683-11.172,4.555-15.088,3.627
			c-3.352-0.794-6.393-2.705-8.347-5.541c-5.393-7.83,0.214-16.77,1.971-19.219c-6.256-6.002-11.013-10.467-11.673-11.091
			c-0.781-0.739-7.35,5.006-15.387,12.707l1.351,1.377c5.439,6.028,4.956,12.395,3.697,16.528c-1.004,3.295-3.452,5.981-6.406,7.752
			c-9.551,5.726-18.686-3.997-18.686-3.997l0,0c-6.288,6.593-12.301,11.616-12.595,12.54c-0.69,2.169,25.328,26.644,40.241,38.635
			c6.087,4.894,12.625,5.368,17.357,0.677c13.184-13.071,24.134-23.005,37.951-38.944
			C278.22,295.035,272.249,290.202,264.871,282.62z"/>
		<g>
			<path style="fill:#421B36;" d="M92.791,340.747c-2.809,10.307-5.405,20.678-7.849,31.078c-1.925,8.192-3.752,16.414-5.269,24.693
				c-1.127,6.152-2.387,12.543-2.29,18.826c0.055,3.573,2.897,5.644,5.734,7.364c4.87,2.954,10.342,4.978,15.7,6.846
				c14.466,5.043,29.488,8.656,44.508,11.607c6.512,1.28,13.063,2.422,19.654,3.209c3.815,0.456,8.121,1.187,11.95,0.437
				c0.473-0.093,0.932-0.218,1.358-0.451c1.05-0.574,0.113-2.18-0.939-1.606c-0.615,0.336-2.081,0.403-3.078,0.418
				c-2.033,0.031-4.071-0.124-6.094-0.314c-6.016-0.564-11.995-1.555-17.935-2.646c-14.731-2.705-29.403-6.155-43.679-10.701
				c-5.852-1.863-11.723-3.886-17.232-6.622c-2.525-1.254-7.159-3.272-7.989-6.276c-0.471-1.703-0.03-4.337,0.144-6.208
				c0.307-3.303,0.806-6.586,1.358-9.855c1.346-7.963,3.05-15.866,4.851-23.738c2.678-11.71,5.774-23.302,8.721-34.943
				c0.053-0.209,0.112-0.416,0.169-0.624C94.899,340.086,93.105,339.592,92.791,340.747L92.791,340.747z"/>
		</g>
		<g>
			<path style="fill:#944D4D;" d="M149.483,358.428c0,0,11.22-24.432,20.543-36.308c5.171-6.588,14.873-15.361,22.958-17.853
				c4.543-1.401,8.75-0.65,10.492,2.751c1.357,2.649,0.691,5.9-1.274,8.135l-15.98,18.182c0,0,13.687,30.454-13.464,53.054
				L149.483,358.428z"/>
			<g>
				<path style="fill:#421B36;" d="M175.617,389.331c8.926-7.72,14.282-18.976,14.45-30.8c0.064-4.514-0.28-10.001-2.463-14.043
					c-1.274-2.358-2.547-4.717-3.821-7.075c-0.048,0.376-0.097,0.751-0.145,1.127c6.451-7.655,12.808-15.405,19.404-22.936
					c0.785-0.897-0.525-2.217-1.315-1.315c-6.596,7.531-12.953,15.281-19.404,22.936c-0.277,0.329-0.355,0.739-0.145,1.127
					c1.187,2.199,2.375,4.397,3.562,6.596c2.06,3.814,2.466,8.638,2.472,12.911c0.016,11.606-5.158,22.589-13.91,30.158
					C173.395,388.8,174.715,390.111,175.617,389.331L175.617,389.331z"/>
			</g>
			<g>
				<path style="fill:#421B36;" d="M185.568,309.394c2.522,1.983,5.624,2.623,8.724,1.738c2.558-0.73,7.157-3.037,5.74-6.435
					c-0.195-0.467-0.614-0.789-1.144-0.649c-0.439,0.116-0.842,0.681-0.649,1.144c0.507,1.215-0.474,2.157-1.429,2.766
					c-1.053,0.671-2.197,1.192-3.412,1.487c-2.288,0.556-4.654,0.098-6.515-1.366c-0.398-0.313-0.926-0.381-1.315,0
					C185.242,308.398,185.174,309.084,185.568,309.394L185.568,309.394z"/>
			</g>
		</g>
	</g>
</g>
<g id="Character_hand_1">
	<g>
		<path style="fill:#8380FF;" d="M231.069,249.304c-0.653-0.714-5.816-6.18-12.525-13.183c-5.557,4.198-11.255,3.743-15.064,2.607
			c-3.301-0.985-6.227-3.066-8.016-6.01c-4.36-7.177-0.101-14.729,2.258-18.011c-0.027-0.027-0.055-0.055-0.082-0.083
			c-7.457-7.503-14.017-14.636-15.75-14.821c-16.168,13.548-28.428,27.315-40.619,41.296c-4.379,5.022-4.221,12.553,0.387,17.366
			c13.233,13.822,38.649,38.614,40.83,37.96c0.95-0.285,6.502-5.024,13.529-11.389c2.801,2.184,10.917,7.499,18.656,2.859
			c2.954-1.771,5.053-4.686,6.057-7.98c1.189-3.903,1.679-9.797-2.849-15.517C225.843,256.531,231.794,250.096,231.069,249.304z"/>
		<path style="fill:#FFFFFF;" d="M85.344,88.927c0,0,3.452,64.352,8.836,79.939c4.25,12.305,92.905,0.321,97.769-5.807
			c2.445-3.08-1.487-79.629-4.851-81.117C177.387,77.645,98.936,84.98,85.344,88.927z"/>
		<g>
			<path style="fill:#421B36;" d="M84.414,88.927c0.564,10.491,1.311,20.976,2.174,31.445c0.706,8.566,1.502,17.127,2.535,25.66
				c0.816,6.742,1.643,13.574,3.311,20.169c0.419,1.656,0.759,3.501,2.04,4.729c1.21,1.16,2.873,1.811,4.448,2.297
				c5.153,1.589,10.807,1.778,16.156,1.881c15.292,0.295,30.688-1.286,45.805-3.469c6.632-0.958,13.259-2.064,19.791-3.569
				c3.585-0.826,7.944-1.554,11.075-3.634c2.184-1.451,1.757-5.037,1.828-7.326c0.186-6.026,0.015-12.068-0.181-18.092
				c-0.48-14.793-1.261-29.632-2.861-44.35c-0.427-3.927-0.567-8.435-2.014-12.163c-1.066-2.746-5.908-2.458-8.319-2.607
				c-14.948-0.922-30.186,0.49-45.075,1.722c-14.868,1.23-29.868,2.558-44.562,5.215c-1.833,0.332-3.674,0.681-5.466,1.195
				c-1.148,0.329-0.66,2.124,0.494,1.793c4.452-1.277,9.149-1.851,13.723-2.495c7.498-1.056,15.028-1.892,22.562-2.642
				c15.985-1.591,32.068-2.909,48.138-3.105c4.928-0.06,10.159-0.28,15.017,0.726c0.499,0.103,1.282,0.249,1.63,0.455
				c-0.256-0.152,0.031,0.138,0.163,0.513c0.527,1.484,0.744,3.111,0.987,4.66c2.052,13.075,2.618,26.477,3.258,39.68
				c0.338,6.973,0.602,13.953,0.688,20.935c0.052,4.234,0.32,8.808-0.334,12.958c-0.035,0.224-0.084,0.444-0.125,0.666
				c-0.044,0.237-0.132,0.396-0.094,0.328c0.029-0.053,0.015,0.037-0.192,0.184c0.027-0.019-0.35,0.241-0.51,0.334
				c-1.318,0.767-2.823,1.227-4.272,1.672c-5.21,1.598-10.609,2.626-15.968,3.575c-14.787,2.619-29.825,4.311-44.835,4.866
				c-6.398,0.236-12.86,0.297-19.232-0.408c-3.166-0.35-8.409-0.699-10.663-3.371c-1.033-1.224-1.295-3.526-1.659-5.126
				c-0.686-3.02-1.201-6.079-1.668-9.141c-1.217-7.988-2.06-16.035-2.82-24.078c-1.25-13.238-2.211-26.505-2.982-39.779
				c-0.045-0.768-0.089-1.535-0.13-2.303C86.21,87.737,84.35,87.729,84.414,88.927z"/>
		</g>
		<g>
			<path style="fill:#CC8770;" d="M124.134,215.597c13.549-9.78,24.614,4.41,33.071,8.748l10.499-10.794
				c-3.012-5.022-9.844-10.052-13.56-12.985c-6.931-5.471-13.069-9.043-13.069-9.043c-1.289-7.687-9.406-14.57-9.406-14.57
				s11.353-16.597,13.846-21.5c10.035-19.731-38.887-23.053-38.887-23.053c-10.929,15.566-43.152,92.564-48.189,107.802
				c-5.037,15.238,1.17,46.692,9.971,47.134c8.801,0.442,8.749-4.072,7.988-9.201c-0.761-5.129-2.294-23.092-2.294-23.092
				s4.715,11.713,16.921,2.526c0,0,8.08,5.277,14.705-0.639c0,0,7.186,15.008,23.144,15.375c12.651,0.291,25.551-1.824,23.138-11.92
				c-1.919-8.031-17.197-2.567-24.445-6.591C117.274,248.079,109.623,226.072,124.134,215.597z"/>
			<g>
				<path style="fill:#421B36;" d="M104.881,257.307c-2.327-2.715-4.663-5.453-6.22-8.702c-1.938-4.044-2.359-8.555-2.209-12.984
					c0.041-1.197-1.819-1.195-1.859,0c-0.159,4.689,0.355,9.395,2.351,13.686c1.621,3.485,4.141,6.419,6.622,9.314
					C104.346,259.532,105.656,258.212,104.881,257.307L104.881,257.307z"/>
			</g>
			<g>
				<path style="fill:#421B36;" d="M90.622,257.181c-4.771-5.359-8.881-11.501-9.819-18.776c-0.151-1.17-2.012-1.185-1.859,0
					c1.008,7.814,5.227,14.32,10.364,20.091C90.104,259.392,91.416,258.073,90.622,257.181L90.622,257.181z"/>
			</g>
			<g>
				<path style="fill:#421B36;" d="M76.239,259.916c-3.762-5.61-7.766-11.671-7.421-18.722c0.059-1.196-1.801-1.193-1.859,0
					c-0.362,7.386,3.728,13.776,7.674,19.66C75.296,261.843,76.908,260.913,76.239,259.916L76.239,259.916z"/>
			</g>
			<g>
				<path style="fill:#421B36;" d="M140.296,271.022c-0.145-2.338,0.834-4.691,2.698-6.145c1.882-1.467,4.452-1.815,6.69-1.065
					c1.137,0.381,1.625-1.414,0.494-1.793c-2.819-0.945-6.035-0.39-8.372,1.444c-2.264,1.775-3.547,4.692-3.369,7.559
					C138.51,272.211,140.37,272.219,140.296,271.022L140.296,271.022z"/>
			</g>
			<g>
				<path style="fill:#421B36;" d="M61.866,276.9c2.534-1.237,5.855-0.81,7.942,1.111c2.099,1.931,2.839,5.019,1.937,7.706
					c-0.382,1.137,1.413,1.625,1.793,0.494c1.116-3.322,0.112-7.3-2.537-9.625c-2.752-2.414-6.802-2.887-10.072-1.291
					C59.853,275.819,60.794,277.424,61.866,276.9L61.866,276.9z"/>
			</g>
			<g>
				<path style="fill:#421B36;" d="M162.133,208.356c-2.302,2.889-2.759,6.893-1.11,10.211c0.223,0.45,0.86,0.575,1.272,0.334
					c0.458-0.268,0.558-0.821,0.334-1.272c-1.244-2.503-0.93-5.763,0.819-7.958c0.313-0.392,0.383-0.932,0-1.315
					C163.124,208.031,162.448,207.961,162.133,208.356L162.133,208.356z"/>
			</g>
			<g>
				<path style="fill:#A0D2F4;" d="M106.6,257.531c4.027-4.39,9.579-7.281,15.512-7.951c1.176-0.133,1.189-1.994,0-1.859
					c-6.426,0.726-12.447,3.721-16.827,8.496C104.478,257.097,105.789,258.415,106.6,257.531L106.6,257.531z"/>
			</g>
			<path style="fill:#A0D2F4;" d="M106.802,254.564c1.338,1.112,2.001,3.507,0.889,4.846c-1.112,1.338-3.578,1.113-4.916,0.001
				c-1.338-1.112-1.522-3.099-0.41-4.437C103.477,253.635,105.464,253.452,106.802,254.564z"/>
		</g>
		<g>
			<path style="fill:#8380FF;" d="M113.461,88.817c0,0-22.321,33.853-17.937,39.641c7.392,9.758,49.547,29.618,63.059,27.32
				c10.711-1.821,30.863-52.844,30.207-54.384c0,0,0.718-16.201-3.971-16.592C162.151,82.915,113.461,88.817,113.461,88.817z"/>
			<path style="fill:#8380FF;" d="M108.605,131.974c-7.343-0.122-13.095,14.304-10.861,14.838c2.234,0.534,6.682-1.606,24.554,5.377
				c17.872,6.983,16.237,14.067,20.556,12.384c4.318-1.684,10.551-15.45,10.551-15.45S142.345,132.536,108.605,131.974z"/>
			<g>
				<path style="fill:#421B36;" d="M101.53,136.005c18.402-4.175,38.677,3.836,49.238,19.48c0.666,0.986,2.278,0.057,1.605-0.939
					c-11.044-16.358-32.085-24.702-51.338-20.334C99.869,134.476,100.363,136.269,101.53,136.005L101.53,136.005z"/>
			</g>
			<g>
				<path style="fill:#421B36;" d="M132.677,157.227c3.805-3.489,6.57-8.031,7.94-13.007c0.318-1.155-1.475-1.648-1.793-0.494
					c-1.29,4.684-3.882,8.904-7.462,12.187C130.478,156.722,131.796,158.034,132.677,157.227L132.677,157.227z"/>
			</g>
			<g>
				<path style="fill:#421B36;" d="M117.314,135.7c-3.217,3.413-5.029,7.996-4.989,12.69c0.01,1.196,1.87,1.199,1.86,0
					c-0.036-4.204,1.559-8.313,4.444-11.375C119.449,136.144,118.137,134.827,117.314,135.7L117.314,135.7z"/>
			</g>
			<path style="opacity:0.2;fill:#421B36;" d="M163.589,107.965c-0.985-0.391-2.024-0.773-3.132-1.142
				c0.161-0.682,0.404-1.293,1.189-1.088c0,0.118,0,0.237,0,0.356C163.277,105.985,163.879,107.092,163.589,107.965z M163.46,98.763
				c-0.429-0.795-0.994-1.338-1.814-1.598c-0.173,0-0.344,0-0.557,0c-0.766,0.987-1.49,3.275,0.557,2.856c0,0.119,0,0.238,0,0.357
				C162.541,100.546,162.852,99.296,163.46,98.763z M179.515,122.211c-0.021,0.007-0.034,0.013-0.055,0.02
				c0.358,1.546,0.231,2.521,0.231,2.521l0.688-1.81C180.169,122.678,179.89,122.428,179.515,122.211z M185.436,94.543
				c-0.506-0.548-0.577-1.041-0.7-1.868C178.735,91.887,183.361,99.495,185.436,94.543z M175.056,113.675
				c1.109-0.759,1.288-1.666,1.581-2.966c-1.101-1.973-2.784-1.08-3.533,0.639C173.391,112.408,173.93,113.248,175.056,113.675z
				 M185.638,98.789c0.312,0.426,0.62,0.846,0.901,1.228c0.78,0.109,1.511,0.209,2.427,0.336l0.506-1.331
				C189.639,96.773,186.816,96.124,185.638,98.789z M168.433,89.703c0.921,2.188,2.997,2.974,4.313,0.848
				C171.982,88.46,170.051,88.226,168.433,89.703z M186.219,107.579l0.649-1.708C186.247,106.199,185.87,106.804,186.219,107.579z
				 M177.894,114.584c-1.15,1.265-0.035,3.311,1.612,2.993C181.702,116.466,180.681,112.875,177.894,114.584z M186.135,90.359
				c0.299,1.119,1.368,1.689,2.243,1.474l-0.816-3.151C186.803,88.833,186.123,89.387,186.135,90.359z M174.451,101.281
				c-0.317,0.595-0.587,1.108-0.935,1.766c0.353,0.728,0.327,1.691,1.431,2.025c0.446-0.297,1.193-0.151,1.591-0.779
				C176.36,102.858,176.575,100.678,174.451,101.281z M173.517,93.689c-0.06,0.601-0.122,1.229-0.19,1.917
				c1.118,0.411,2.101,0.315,3.122-0.402c0.122-0.685,0.167-1.281,0.181-1.922C175.143,92.428,175.143,92.428,173.517,93.689z
				 M179.669,96.987c-1.069,0.375-2.347,0.353-2.539,1.877c0.645,0.147,0.959,0.622,1.2,1.199c0.614,0,1.197,0,1.788,0
				c0.426-0.514,0.826-0.998,1.303-1.573C180.788,97.945,180.221,97.46,179.669,96.987z M169.303,97.53
				c0.124,1.222-0.309,2.738,1.435,2.891c0.468-0.235,0.992-0.498,1.531-0.77C173.184,97.865,170.127,96.088,169.303,97.53z
				 M182.277,110.96c0.087,0.571-0.361,0.899-0.562,1.373c0.716,0.881,1.767,0.909,2.534,0.43l0.782-2.058
				C184.102,110.013,181.838,109.243,182.277,110.96z M184.417,86.993l-1.838,0.167c0.144,0.117,0.309,0.242,0.521,0.397
				C183.672,87.527,184.106,87.308,184.417,86.993z M169.367,108.675c1.89,0.464,3.751-0.923,2.44-2.696
				C169.919,105.963,168.173,106.479,169.367,108.675z M185.486,103.262c-0.973-0.49-1.006-1.245-1.418-1.976
				c-1.346-1.172-1.989,1.594-1.569,2.535C183.992,104.684,184.048,104.677,185.486,103.262z M181.408,90.512
				c-1.357-3.162-5.891-1.355-2.192,1.018C179.934,91.198,180.605,90.886,181.408,90.512z M165.394,101.375
				c-0.183,0.549-0.347,1.045-0.513,1.538c0.388,0.843,1.034,1.264,1.865,1.424C168.452,103.078,167.777,100.513,165.394,101.375z
				 M179.669,105.976c-1.794,0.406-2.867,0.97-1.854,2.199c0.863-0.312,1.618-0.081,2.414,0.398
				c0.218-0.237,0.411-0.444,0.633-0.686C180.231,107.289,180.419,106.375,179.669,105.976z M167.552,93.326
				c-0.809-0.148-1.503-0.392-2.224,0.337c-0.093,0.577-0.195,1.146,0.103,1.678C167.198,96.399,168.741,95.008,167.552,93.326z
				 M161.646,91.453c0,0.118,0,0.237,0,0.356c1.977,0.001,2.618-2.055,1.407-2.872l-2.8,0.255
				C160.303,90.242,159.853,91.669,161.646,91.453z M129.465,99.049c-0.416-1.307-1.64-2.706-3.132-2.318
				c-0.424,0.147-0.782-0.135-1.126-0.688c0-0.708,0-1.584,0-2.455c-2.993-1.639-5.852,0.383-2.465,2.917
				C126.691,95.333,125.516,104.555,129.465,99.049z M112.348,98.117c-5.06-4.142-5.01,5.286,0.005,1.764
				C112.426,99.19,112.4,98.849,112.348,98.117z M109.081,105.559c-0.812,0.896-0.217,1.837-0.282,2.884
				c1.442,0.92,1.442,0.92,2.557,0.898C112.972,107.331,111.785,104.788,109.081,105.559z M120.583,99.732
				c-0.154-0.731-0.318-1.522-0.506-2.417c-1.978-0.982-2.888,0.119-3.013,2.131C118.457,101.144,119.289,101.185,120.583,99.732z
				 M113.718,109.966c-0.294,0.248-0.502,0.541-0.663,0.844c0.776-0.248,1.569-0.496,2.384-0.743
				C115.011,109.973,114.444,109.936,113.718,109.966z M102.535,108.957c0.302-0.859,1.173-1.552,0.878-2.633l-1.486,2.704
				C102.117,109.025,102.317,109.006,102.535,108.957z M120.633,107.635c1.014-1.212-1.042-1.728-1.807-2.481
				c-2.364,1.134-1.51,1.315-1.294,3.369C119.327,109.551,119.651,108.838,120.633,107.635z M116.632,93.936
				c-0.123-0.207-0.276-0.466-0.436-0.735l-2.674,0.243C111.788,96.853,116.333,97.672,116.632,93.936z M150.134,93.384
				c-0.132-1.582-2.901-0.785-3.054,0.412c-0.68,2.64,2.728,3.167,3.428,0.788C150.566,94.087,150.038,93.911,150.134,93.384z
				 M105.76,109.587c-0.87,0.552-1.042,1.469-1.581,2.368c0.379,0.862,0.839,1.296,1.296,1.458c0.51-0.188,1.042-0.38,1.593-0.577
				C107.804,111.879,107.814,110.163,105.76,109.587z M116.557,104.532c-0.902-1.941-0.666-4.327-3.679-2.738
				C112.442,104.29,114.426,105.22,116.557,104.532z M135.026,97.097c-2.228,1.95-0.842,2.739,0.968,3.33
				c0.994,0.222,2.242-1.279,1.223-2.049C136.729,96.929,136.494,97.042,135.026,97.097z M123.272,101.176
				c-4.662,1.202-0.067,5.183,1.952,2.254C124.872,102.367,124.302,101.6,123.272,101.176z M106.112,104.31
				c2.4,0.729,1.646-2.924,0.155-3.179l-1.576,2.868C105.003,104.262,105.47,104.404,106.112,104.31z M133.114,102.664
				c-0.427-0.612-0.369-1.22-0.909-1.793c-1.415,0.507-2.301,1.287-2.31,2.934C130.901,105.068,134.296,104.505,133.114,102.664z
				 M145.607,91.385c0.198-0.288,0.414-0.603,0.631-0.918l-3.164,0.288C143.429,91.264,144.208,91.6,145.607,91.385z
				 M100.258,115.427c0.7-0.284,1.528-0.615,2.493-0.988C101.734,113.656,100.62,114.385,100.258,115.427z M153.077,100.704
				c0.424-0.228,0.888-0.475,1.325-0.71c0.145-0.614,0.276-1.174,0.436-1.855c-0.888-0.357-1.743-0.703-2.571-1.036
				C150.644,97.797,151.956,100.304,153.077,100.704z M147.052,103.073c0.584,4.054,5.011-0.891,2.767-1.371
				C148.578,101.883,146.932,100.909,147.052,103.073z M125.701,107.212c0.011,0.035,0.021,0.068,0.032,0.103
				c1.085-0.249,2.18-0.488,3.286-0.712c0.008-0.063,0.017-0.128,0.025-0.191C127.342,105.253,127.007,106.305,125.701,107.212z
				 M137.057,91.303l-1.451,0.132C136.145,91.623,136.706,91.606,137.057,91.303z M155.651,102.328
				c0.642,0.918,1.02,2.173,2.634,1.572c0.878-1.967,0.876-2.448-1.403-2.939C156.395,101.327,155.892,101.714,155.651,102.328z
				 M154.572,89.709l-2.769,0.252C151.698,91.948,154.973,92.22,154.572,89.709z M159.526,94.107
				c-1.213-1.039-2.81-0.473-3.777,0.47C155.749,97.248,158.684,95.663,159.526,94.107z M143.392,100.061
				c2.259-0.306,4.26-2.133,1.146-2.914C143.201,96.782,142.971,99.132,143.392,100.061z M133.146,95.196
				c-1.038-1.355,0.068-2.635-2.397-1.71c-0.267,0.564-0.488,1.031-0.683,1.441c0.503,1.124,1.527,0.832,2.301,1.182
				C132.642,95.787,132.864,95.525,133.146,95.196z M141.608,95.714c-0.267-1.12-0.338-1.892-0.379-3.065
				c-1.053,0.007-1.434,0.818-1.977,1.444c0,0.578,0,1.037,0,1.604C140.036,95.734,140.683,96.64,141.608,95.714z M141.643,103.188
				c0.177-2.211-2.03-1.927-3.106-1.056C138.982,103.676,140.437,103.779,141.643,103.188z M139.817,104.203l-0.004-0.11
				l-0.126,0.061L139.817,104.203z"/>
		</g>
		<g>
			<path style="fill:#421B36;" d="M85.555,97.512c28.797-6.151,104.351-8.956,104.194-7.64c0,0,0.081-5.293-1.048-8.911
				c-1.374-4.404-91.101,3.263-103.357,7.966L85.555,97.512z"/>
			<path style="fill:#A0D2F4;" d="M94.769,91.47c0.192,1.634-0.977,3.114-2.611,3.306c-1.634,0.192-3.114-0.977-3.306-2.61
				c-0.192-1.634,0.977-3.114,2.611-3.306C93.097,88.667,94.577,89.836,94.769,91.47z"/>
			<path style="fill:#A0D2F4;" d="M103.797,90.408c0.192,1.634-0.977,3.114-2.61,3.306c-1.634,0.192-3.114-0.977-3.306-2.61
				c-0.192-1.634,0.977-3.114,2.61-3.306C102.125,87.606,103.605,88.774,103.797,90.408z"/>
		</g>
	</g>
	<g>
		<path style="fill:#421B36;" d="M182.738,297.724c4.314-4.285,8.629-8.57,12.943-12.855c-0.438,0-0.876,0-1.315,0
			c6.848,5.751,17.164,7.117,24.048,0.648c6.425-6.037,5.918-16.612-0.369-22.563c0,0.438,0,0.877,0,1.315
			c4.47-4.698,8.787-9.625,13.465-14.116c0.865-0.83-0.451-2.144-1.315-1.315c-4.678,4.49-8.995,9.418-13.465,14.116
			c-0.339,0.356-0.373,0.962,0,1.315c5.572,5.274,6.075,14.571,0.369,19.933c-6.101,5.733-15.365,4.437-21.419-0.648
			c-0.386-0.324-0.933-0.379-1.315,0c-4.314,4.285-8.629,8.57-12.943,12.855C180.573,297.254,181.888,298.569,182.738,297.724
			L182.738,297.724z"/>
	</g>
</g>
</svg>
